<?xml version="1.0" encoding="UTF-8"?>
<svg id="b" xmlns="http://www.w3.org/2000/svg" version="1.1" viewBox="0 0 959.9 959.9">
  <!-- Generator: Adobe Illustrator 29.4.0, SVG Export Plug-In . SVG Version: 2.1.0 Build 152)  -->
  <defs>
    <style>
      .st0 {
        fill: #ff5a00;
      }

      .st1 {
        fill: #fff;
      }

      .st2 {
        fill: #222;
      }
    </style>
  </defs>
  <g id="c">
    <rect class="st0" width="959.9" height="959.9"/>
    <path class="st1" d="M712.1,62.2c32-2.5,65,9.3,87.8,31.9,2,1.8.7,5.6-2,5.8-1.9.3-3.2-1.3-4.6-2.4-15.8-14.7-36.1-24.4-57.5-27.5-31.4-4.7-64.7,5.4-87.9,27-1.6,1.4-3.4,3.6-5.8,2.7-2.6-.9-3-4.6-.8-6.2,19-18.3,44.5-29.6,70.8-31.4h0Z"/>
    <path class="st1" d="M708.5,93.7c22.8-3.4,47,3.2,64.8,18,2.2,1.4,1.9,5.1-.6,6.1-2.4,1.1-4.4-1.2-6.2-2.4-16.7-12.9-39-18.1-59.7-14.3-13.9,2.4-26.9,9-37.5,18.3-3,3.5-8.4-1.9-4.9-4.9,12.1-11.2,27.8-18.4,44.1-20.8h0Z"/>
    <path class="st1" d="M714.4,129.8c12.6-1.9,26,1.7,35.9,9.8,10.6,8.5,17,21.9,17,35.4,0,18,0,36,0,54,0,5.7-.1,11.4-1.7,16.9-3.4,12.4-12.4,23.2-23.9,28.8-13.6,6.8-30.7,6.2-43.8-1.6-11.2-6.6-19.5-18.2-21.8-31-1.2-5.9-.8-12-.8-18.1,0-13,0-26,0-38.9,0-7.6-.5-15.4,1.9-22.8,4.8-16.8,19.9-30.1,37.3-32.5h0ZM713.8,137c-11.1,2.1-21.1,9.4-26.5,19.3-4.5,7.6-5.4,16.7-5,25.4,9.6.1,19.1-.2,28.7.1,4.1,0,4,7,0,6.8-9.5.2-19,0-28.6,0,0,5.3,0,10.7,0,16,16.2,0,32.4-.1,48.7,0,3-.2,4.5,3.8,2.5,5.8-1.1,1.3-3,1-4.5,1.2-15.5,0-31.1,0-46.6,0,0,5.3,0,10.6,0,15.9,11.9.1,23.8-.2,35.6.1,3.9.2,3.8,6.8-.1,6.8-11.9.3-23.8,0-35.6.1.6,14.5,9.5,28.3,22.8,34.2,9.7,4.6,21.4,4.8,31.3.5,11.1-4.6,19.7-14.6,22.7-26.2,1.6-5.9,1.3-12.1,1.3-18.2,0-14,0-28,0-42.1,0-4.7.2-9.4-.6-14.1-1.6-10-7.4-19.2-15.6-25.1-8.6-6.3-19.9-8.9-30.3-6.7h0Z"/>
    <path class="st1" d="M330.1,213.2c10.1-11.8,24.5-19.8,39.8-22.1,13.9-2.1,28.5.2,40.9,6.9,16,8.4,28.2,23.7,32.8,41.1,5.3,19.5.9,41.2-11.5,57.2,4.3,6.9,9,13.5,13.1,20.5,1.6,2.2-.6,5.4-3.2,5-18,0-36.1,0-54.1,0-6,0-12,.3-18-.7-17.3-2.5-33.3-12.4-43.4-26.6-9.2-12.7-13.5-28.9-12-44.5,1.2-13.5,6.8-26.5,15.6-36.7h0ZM343.6,209.7c-12.4,9.7-20.7,24.5-22.3,40.2-1.6,14.8,2.7,30.1,11.8,41.9,8.9,11.7,22.2,19.9,36.6,22.3,6.4,1.2,12.9.9,19.3.9h47c-3.6-5.8-7.5-11.4-11.1-17.2-1.5-2.2.6-4.3,1.8-6,7.1-9,11.3-20.3,12-31.8,1-14.6-3.7-29.6-12.9-40.9-9.9-12.4-25-20.5-40.8-21.8-14.7-1.3-29.9,3.2-41.4,12.4h0Z"/>
    <path class="st1" d="M547.3,192.4c2.2-1.6,5.7-.2,6,2.5.6,2.8-2.7,5.4-5.3,4.1-2.7-1-3.1-5.1-.7-6.6h0Z"/>
    <path class="st1" d="M283.3,195.7c6.4-1.7,13.5,0,18.3,4.6,4.5,4.2,6.9,10.7,6,16.8-.8,6.4-5,12.2-10.8,14.9-6.1,3-13.9,2.5-19.5-1.5-5.7-3.8-9-10.8-8.4-17.6.5-8.1,6.6-15.3,14.4-17.3h0ZM284.3,202.5c-5.5,1.8-9.3,7.7-8.5,13.5.6,6.8,7.5,12.1,14.2,11.1,7.1-.7,12.5-8.2,10.8-15.1-1.3-7.2-9.6-12-16.5-9.5h0Z"/>
    <path class="st1" d="M547.3,206.5c2.2-1.7,5.7-.2,6,2.6.5,2.4-1.9,4.8-4.4,4.3-3.3-.2-4.4-5.1-1.6-6.9Z"/>
    <path class="st1" d="M577.2,206.4c2.5-1.8,6.4.4,5.8,3.5,0,2.8-3.6,4.4-5.8,2.9-2.3-1.3-2.3-5.1,0-6.4h0Z"/>
    <path class="st1" d="M622.2,206.2c2.2-1.2,5.2.2,5.5,2.7.7,3-3.1,5.6-5.7,3.9-2.6-1.3-2.5-5.5.1-6.7Z"/>
    <path class="st1" d="M637.1,206.2c2.3-1.2,5.4.3,5.6,2.9.5,3-3.1,5.3-5.6,3.8-2.6-1.3-2.5-5.5,0-6.7Z"/>
    <path class="st1" d="M239.4,208.5c2.7-1.3,6.1,1.5,5.2,4.4-.5,2.8-4.5,3.9-6.4,1.8-2-1.8-1.3-5.4,1.2-6.2Z"/>
    <path class="st1" d="M254.3,208.5c2.3-1.1,5.4.9,5.2,3.5.3,3.2-4.1,5.2-6.3,2.9-2.1-1.7-1.5-5.5,1.1-6.4Z"/>
    <path class="st1" d="M223.3,209.3c1.9-2,5.8-1,6.4,1.8.9,2.6-1.9,5.4-4.6,4.7-2.9-.5-3.9-4.6-1.8-6.5Z"/>
    <path class="st1" d="M474.4,212.7c6.7-2.5,14.3,4.3,12.4,11.2-1.2,7.1-10.9,10.1-16,5.1-5.4-4.6-3.3-14.4,3.5-16.3h0Z"/>
    <path class="st1" d="M0,234.6c17.9-11.8,39.5-17.6,60.9-17.5,12.7.2,26.1,3.3,35.6,12.3,7.6,6.9,11.3,17.1,12,27.2,5.5.2,11.2-.7,16.5,1,8.5,2.5,15,10.5,15.7,19.3,1.1,9.7-4.8,19.6-13.8,23.2-5.6,2.6-12.4.6-17.6,4.3-7.5,4.5-10.2,15.2-5.6,22.6,3,5.4,9.1,8.6,15.2,8.5,13.4,0,26.8,0,40.3,0v5.8c-13.4,0-26.8,0-40.2,0-6.1,0-12.3-2.2-16.6-6.6-5.4-5.3-7.7-13.4-6.1-20.7,1.6-8,7.9-14.8,15.8-17,4.4-1.3,9.2-.4,13.4-2.5,6.6-2.9,10.7-10.3,9.6-17.4-.9-7.5-7.4-14-15-14.5-3.8-.2-7.6,0-11.4,0-.7,10.3-4.6,20.7-12.5,27.6-9.7,8.8-23.3,11.7-36.1,11.8-21,0-42.2-5.9-59.8-17.5,0-2.6,0-5.2,0-7.8,7.7,6.8,17.4,11,27.1,14.3,13.7,4.3,28.4,6.4,42.8,4.5,9.1-1.3,18.3-4.8,24.5-11.8,6.2-6.8,8.7-16.3,8.3-25.4-.2-9.5-3.9-19.3-11.4-25.5-8.1-6.9-19.1-9.2-29.5-9.6-14.9-.4-29.8,2.6-43.5,8.4C11.8,234.2,5.3,237.5,0,242.4c0-2.6,0-5.2,0-7.8h0Z"/>
    <path class="st1" d="M533.1,219.2c2.5-1.1,5.5.9,5.3,3.7,0,3.1-4,4.8-6.3,2.8-2.1-1.7-1.6-5.5,1-6.5Z"/>
    <path class="st1" d="M563.1,219.1c2.5-.9,5.4,1.1,5.1,3.8,0,2.9-3.7,4.6-5.9,2.9-2.6-1.5-2-5.9.8-6.8Z"/>
    <path class="st1" d="M607.2,219.4c2.5-1.5,6.1.6,5.7,3.6,0,2.8-3.5,4.5-5.8,3-2.5-1.3-2.4-5.3,0-6.6h0Z"/>
    <path class="st1" d="M623.2,219c2.8-.8,5.5,2.2,4.5,4.9-.7,2.6-4.4,3.5-6.3,1.5-2.1-1.9-1.1-6,1.8-6.4Z"/>
    <path class="st1" d="M56.6,231.5c1.9-.4,3.8-.4,5.7,0,0,7.4,0,14.8,0,22.2,6.9.1,13.8-.2,20.6.1,1.8,1.1,1.6,4,.3,5.4-8.1.4-16.2.1-24.2.2-2,.4-2.5-1.9-2.4-3.5,0-8.2,0-16.3,0-24.5h0Z"/>
    <path class="st1" d="M562.4,232.6c2.1-1.3,5.3-.1,5.7,2.4.7,2.4-1.7,5.1-4.2,4.6-3.5-.1-4.6-5.4-1.5-7Z"/>
    <path class="st1" d="M577.4,232.6c2.4-1.5,6,.5,5.7,3.4.1,2.9-3.6,4.7-5.9,3.1-2.3-1.4-2.2-5.3.2-6.5Z"/>
    <path class="st1" d="M622.3,232.4c2.5-1.4,5.9.8,5.6,3.7,0,2.7-3.4,4.5-5.7,3-2.6-1.4-2.5-5.5.2-6.7h0Z"/>
    <path class="st1" d="M637.3,232.4c2.5-1.2,5.7.9,5.4,3.7,0,2.7-3.4,4.6-5.7,3.1-2.6-1.3-2.4-5.7.3-6.8h0Z"/>
    <path class="st1" d="M654.9,233c1.6-1.6,5.1-1,5.7,1.4.4,2.2.3,4.5.5,6.7,1.3,16.2,9.7,31.5,22.3,41.6,10.8,8.7,24.6,13.6,38.5,13.3,16.2,0,32.1-7.1,43.2-18.8,10-10.5,16.1-24.7,16.6-39.2.3-1.7-.2-3.8,1.2-5.1,1.8-1.9,5.7-.7,5.8,2.1.7,24.4-13.5,48.2-35,59.7-8.9,4.9-18.8,7.6-28.9,8.3,0,19.3.2,38.6-.1,57.9,0,3.9-6.6,4.1-6.8.1-.3-19.3,0-38.7-.1-58-15.3-.9-30.2-6.9-41.6-17.2-13.8-12.3-22.2-30.4-22.4-48.9,0-1.4-.1-3,1.1-4h0Z"/>
    <path class="st1" d="M207.3,234.4c12.2-.2,24.4,0,36.7,0,8.8,0,16.7,7.8,16.5,16.7,0,12,0,23.9,0,35.9,0,8.6-7.8,16.1-16.4,16-12.1,0-24.1,0-36.2,0-8.4-.1-15.8-7.6-15.9-16-.1-12,0-24,0-35.9-.1-8.4,7-16.1,15.5-16.6h0ZM207.2,240.2c-5.3.6-9.7,5.5-9.6,10.8,0,11.6,0,23.3,0,34.9-.3,6.1,5.2,11.6,11.3,11.3,11.7,0,23.4,0,35.1,0,5.9,0,10.9-5.3,10.8-11.1.2-10,0-20.1,0-30.1,0-3.5.3-7.3-1.6-10.4-2-3.6-6.1-5.7-10.2-5.5-11.9,0-23.9-.2-35.8.1Z"/>
    <path class="st1" d="M356.5,238h9.6v9.5h-9.6c0-3.2,0-6.3,0-9.5Z"/>
    <path class="st1" d="M395,238h9.6c0,3.2,0,6.3,0,9.5-3.2,0-6.4,0-9.6,0,0-3.2,0-6.3,0-9.5Z"/>
    <path class="st1" d="M214.4,255.6c7.5-.5,15-.2,22.5-.2,1.9-.1,2.8,1.9,2.6,3.5.1,6.4,0,12.7,0,19.1,0,1.7-.5,4-2.6,3.9-7.3.1-14.7.2-22,0-1.9,0-2.1-2.3-2.1-3.8,0-5.7,0-11.4,0-17,.1-1.9-.5-4.5,1.6-5.4h0ZM218.6,261.1c0,5.1,0,10.2,0,15.2h15.2c0-5.1,0-10.2,0-15.2-5.1,0-10.2,0-15.2,0Z"/>
    <path class="st1" d="M348.1,263.3c1.7-1.4,3.7.5,5.4,1.1,17.3,9.1,39.4,9.8,56.4-.3,1.4-1,3.7-1.8,4.8.1,1.1,2.6-1.8,3.9-3.6,5-19.3,10.5-43.9,9.1-62.7-1.9-1.5-.7-1.6-3-.3-4h0Z"/>
    <path class="st1" d="M495.1,268.9c-.2-2.8,2-5.6,4.8-6,3-.4,6-.2,9-.2,38,0,76.1,0,114.1,0,3.5-.4,7,2.6,6.7,6.2,0,24.9,0,49.8,0,74.7,2.9,0,7.5.2,7.3,4.2-.2,3.9,1.8,11.4-4,11.8-46.7.1-93.4,0-140.1,0-2,.2-4.6-.6-5-2.9-.3-3.5-.5-7.2.2-10.7,1.2-2.8,4.6-2.2,7-2.5,0-24.9,0-49.9,0-74.8h0ZM501.4,269.3c0,24.9,0,49.7,0,74.6h121.9c0-24.9,0-49.8,0-74.6-40.6,0-81.2,0-121.9,0h0ZM494,350.2c0,.8,0,2.3,0,3.1,45.5,0,91.1,0,136.6,0v-3.1c-45.5,0-91.1,0-136.6,0Z"/>
    <path class="st1" d="M56.5,265.5c1.9-.5,3.9-.5,5.8,0,0,8.2.1,16.3,0,24.5.6,3.4-6.2,3.4-5.7,0-.2-8.2,0-16.4,0-24.6Z"/>
    <path class="st1" d="M583.2,286.2c2.2-.8,4.9,2.3,3,4-8.3,10-17,19.7-25.5,29.6-2.2,2.5-4.2,5.2-6.8,7.4-2.2.1-4.5-2.8-2.5-4.5,8.9-10.5,18-20.8,26.9-31.2,1.6-1.8,3-3.7,4.8-5.2Z"/>
    <path class="st1" d="M605.1,287c1.4-2.1,4.6-.4,4.7,1.8-.7,1.5-1.8,2.7-2.9,4-10.1,11.5-19.9,23.2-30.1,34.6-1.9-.8-4.7-2.9-2.4-4.9,10.2-11.9,20.4-23.7,30.7-35.5h0Z"/>
    <path class="st1" d="M178.1,297c2.7-.7,5.3,2.1,4.4,4.8-.6,2.6-4.3,3.8-6.2,1.8-2.4-1.9-1.2-6.2,1.8-6.6h0Z"/>
    <path class="st1" d="M177.1,312.3c2.8-1.7,6.6,1.5,5.4,4.6-.7,2.8-4.9,3.5-6.6,1.2-1.5-1.8-.8-4.8,1.2-5.8h0Z"/>
    <path class="st1" d="M32.3,322.5c6.7-2.5,14.3,4.3,12.4,11.3-1.2,7-10.7,10.1-15.8,5.2-5.6-4.5-3.5-14.6,3.4-16.5h0Z"/>
    <path class="st1" d="M230.2,324.5c5-1.3,10.6.3,14.1,4,28.4,27.9,56.8,56,85.3,83.9,2.5,2.8,6.9,3.6,10.1,1.5,30.6-18.4,61.2-36.9,91.8-55.3,3.6-2,7-4.8,11.2-5.3,4.1-.6,8.3.7,11.5,3.4,7.1,5.9,14,12,21.2,17.9,1.8,1.6,4.1,2.2,6.5,2.1,55.4-.2,110.7-.2,166.1-.4,2.8-.5,5.3,2.9,3.5,5.3-1.2,1.9-3.7,1.3-5.6,1.4-54.3.2-108.6.2-162.9.4-4,.1-8.2-.5-11.3-3.1-7.4-6-14.4-12.4-21.7-18.4-2.6-2.4-6.7-2.6-9.6-.6-32.2,19.4-64.5,38.9-96.7,58.3-5.6,3.6-13.6,2.8-18.3-1.9-28.6-28.1-57.1-56.2-85.7-84.3-2.5-2.6-6.6-3.3-9.8-1.4-28.3,15.4-56.6,30.7-84.9,46.1-4.1,2.1-8.1,5.1-13,5-21.4,0-42.8,0-64.1,0-2.7.2-4.2-3.6-2.4-5.4,1-1.4,2.9-1.1,4.4-1.3,20.3,0,40.7,0,61.1,0,3.6.2,6.6-2,9.6-3.6,27-14.7,54-29.3,81-44,2.8-1.5,5.6-3.3,8.7-4.1h0Z"/>
    <path class="st1" d="M332.3,346.6c8.8-2.9,19.1,1.5,23.2,9.8,3.4,6.6,2.6,15.3-2.2,21-3.9,4.9-10.2,7.7-16.4,7.2-8.9-.3-16.9-7.7-18-16.6-1.6-9.2,4.5-18.8,13.5-21.4ZM333.3,353.5c-5.5,2.2-9,8.7-7.5,14.5,1.3,6.3,7.9,10.9,14.2,9.8,7.2-.9,12.5-8.6,10.4-15.6-1.7-7.2-10.3-11.7-17.1-8.6Z"/>
    <path class="st1" d="M28.3,360.6c6.8-2.6,14.9-1.1,20.2,3.9,5.5,5,7.6,13.2,5.3,20.3-2.6,8.3-11.2,14.2-19.9,13.4-9.1-.4-17.2-8.1-18-17.1-1.2-8.6,4.2-17.5,12.4-20.5h0ZM31.4,366.8c-5.5,1.7-9.4,7.5-8.7,13.3.5,6.9,7.4,12.4,14.2,11.4,6.8-.7,12.1-7.7,10.9-14.5-.9-7.5-9.3-12.7-16.4-10.2Z"/>
    <path class="st1" d="M719.2,371.4c2.5-1.4,6.1.6,5.9,3.6.2,3.1-3.8,5.2-6.3,3.3-2.5-1.5-2.2-5.7.4-6.9h0Z"/>
    <path class="st1" d="M227.1,375.3c2.8-1.3,6.1,1.8,5,4.7-.6,2.5-4,3.5-6,1.9-2.4-1.6-1.7-5.7,1-6.6h0Z"/>
    <path class="st1" d="M242.1,375.2c2.8-1.1,5.9,1.9,4.9,4.7-.7,2.8-4.7,3.7-6.5,1.5-1.8-1.9-1-5.5,1.6-6.2Z"/>
    <path class="st1" d="M212.4,387.6c2.6-1,5.7,1.7,4.9,4.4-.5,2.8-4.3,4-6.3,2-2.1-1.8-1.3-5.8,1.4-6.5Z"/>
    <path class="st1" d="M257.3,387.5c2.6-.8,5.4,1.9,4.7,4.5-.5,2.8-4.2,4-6.2,2.1-2.3-1.9-1.4-6,1.6-6.6Z"/>
    <path class="st1" d="M181.3,388.3c2.2-2.1,6.3-.4,6.3,2.7.3,2.8-2.9,5-5.4,3.7-2.5-1-3-4.7-.9-6.4h0Z"/>
    <path class="st1" d="M718.3,388.5c2.2-2.2,6.6-.7,6.7,2.5.6,3.2-3.4,5.8-6,4-2.3-1.2-2.7-4.7-.7-6.4h0Z"/>
    <path class="st1" d="M441.1,390c1.6-1.5,4.8-.9,5.3,1.3.3,1.5.2,3.1.2,4.7-.1,27.6,0,55.3,0,82.9.4,4.2-6.8,4.3-6.5,0-.2-28,0-56.1-.1-84.1.1-1.6-.3-3.7,1.1-4.9h0Z"/>
    <path class="st1" d="M522.5,396.7c2.3-1.7,5.6.5,5.2,3.2,0,24,.1,48,0,72,.3,3.4-5,4.7-6.3,1.5-.5-2.5-.2-5-.3-7.5,0-21.7,0-43.3,0-65,0-1.5-.1-3.4,1.5-4.3Z"/>
    <path class="st1" d="M197.4,402.5c2.3-.9,5.2,1,5.1,3.5.3,3-3.5,5-5.9,3.3-2.6-1.5-2.1-5.9.8-6.8Z"/>
    <path class="st1" d="M227.3,402.5c2.7-1,5.6,1.8,4.9,4.5-.5,3-4.9,3.9-6.7,1.5-1.7-2-.7-5.4,1.8-6.1Z"/>
    <path class="st1" d="M241.1,403c2.3-1.8,6.2,0,6.1,3,.2,2.9-3.3,4.9-5.7,3.4-2.4-1.2-2.6-4.9-.4-6.4Z"/>
    <path class="st1" d="M421.2,404.3c2-1.5,5.5,0,5.2,2.8,0,19.3.2,38.6,0,57.9,0,3.7-6.2,3.7-6.4,0-.3-18.3,0-36.7-.2-55,.2-1.9-.4-4.5,1.5-5.7h0Z"/>
    <path class="st1" d="M462.1,404c2-1.1,4.9.5,4.8,2.9.2,18.4,0,36.7.1,55.1-.1,1.8.3,4.4-1.7,5.3-2.3,1.4-5.3-.7-4.9-3.3,0-18.4,0-36.7,0-55,0-1.8-.2-4.1,1.8-5Z"/>
    <path class="st1" d="M503.4,408.4c2.1-.5,4.3,1.4,4,3.6,0,15.7,0,31.4,0,47.1.6,2.8-2.7,5.3-5.2,3.6-1.7-.9-1.4-3-1.5-4.5,0-15.4,0-30.8,0-46.2-.2-1.6.9-3.2,2.5-3.5Z"/>
    <path class="st1" d="M543.3,408.5c2.2-.9,4.8,1,4.5,3.4.1,15.7,0,31.5,0,47.2.5,2.6-2.3,5-4.7,3.7-2-.7-2-3-2-4.8,0-14.7,0-29.4,0-44.1,0-2-.1-4.7,2.2-5.5h0Z"/>
    <path class="st1" d="M622.1,409.2c8.6-2.4,18.5,2.2,22.1,10.4,3,6.5,2,14.6-2.6,20.1-4.9,6.1-13.8,8.5-21.2,5.8-7.6-2.6-12.9-10.5-12.5-18.5.1-8.2,6.2-15.8,14.2-17.7h0ZM623.4,415.8c-5.9,1.7-10,8.2-8.6,14.2,1.1,6.4,7.8,11.1,14.2,9.8,6.7-1,11.6-8.1,10-14.8-1.3-6.8-9-11.5-15.7-9.3h0Z"/>
    <path class="st1" d="M668.3,409.6c7.3-2.6,16.1-.2,21,5.9,5.5,6.5,5.7,16.7.6,23.4-4.4,6.1-12.6,9-19.9,7.1-7.8-1.8-14-9.1-14.4-17.1-.7-8.4,4.8-16.6,12.7-19.3h0ZM671.4,415.6c-5,1.3-9,6-9.2,11.2-.5,6.6,5,12.8,11.6,13.1,7.1.6,13.8-5.9,13.1-13.1-.2-7.5-8.3-13.5-15.5-11.3h0Z"/>
    <path class="st1" d="M716.3,409.5c9.3-3.3,20.5,2.1,23.8,11.5,3.8,9.6-1.8,21.5-11.7,24.6-9.8,3.7-21.8-2.5-24.4-12.7-3-9.5,2.8-20.5,12.4-23.4ZM719.4,415.6c-4.8,1.1-8.7,5.3-9.4,10.3-1.2,6.7,4.1,13.5,10.8,14.1,7.3,1,14.3-5.6,13.8-12.9,0-7.5-8-13.5-15.2-11.5h0Z"/>
    <path class="st1" d="M167.3,417.5c2.4-1.1,5.5.8,5.4,3.5,0,2.6-2.9,4.6-5.3,3.5-3-1.1-3.1-5.9,0-7Z"/>
    <path class="st1" d="M212.3,417.4c2.8-1,5.9,1.7,5,4.6-.6,2.9-4.9,3.8-6.7,1.4-1.7-2-.7-5.2,1.7-6Z"/>
    <path class="st1" d="M226.5,417.7c2.4-1.5,6,.4,5.8,3.4,0,2.8-3.3,4.7-5.6,3.3-2.6-1.2-2.6-5.3-.1-6.6h0Z"/>
    <path class="st1" d="M257.2,417.3c2.4-.7,5.1,1.2,4.9,3.7.1,2.9-3.7,4.9-6,3.1-2.6-1.6-1.9-6.1,1.1-6.8Z"/>
    <path class="st1" d="M181.2,418.2c2-1.9,5.8-.9,6.3,1.9.8,2.6-1.8,5.4-4.5,4.7-3-.4-4-4.6-1.9-6.5h0Z"/>
    <path class="st1" d="M401.3,418.4c2.3-1.4,5.4.9,4.9,3.5,0,9.7.2,19.4-.1,29.1-.4,3.3-5.9,3.2-6.3,0-.5-9,0-18-.2-27,.1-1.9-.4-4.6,1.8-5.6h0Z"/>
    <path class="st1" d="M482.3,418.4c1.9-1.1,4.8.3,4.8,2.6.3,7.7,0,15.4.1,23.1,0,2.6.3,5.2-.4,7.8-1.5,2.9-6.6,1.7-6.2-1.7-.2-8.7,0-17.4,0-26.1.1-1.9-.4-4.6,1.8-5.6h0Z"/>
    <path class="st1" d="M167.3,432.4c2.4-1.2,5.6.9,5.4,3.7,0,2.7-3.3,4.6-5.6,3.2-2.7-1.3-2.5-5.8.3-6.8h0Z"/>
    <path class="st1" d="M197.2,432.4c2.4-1.1,5.6.9,5.3,3.7.1,3.1-4,4.8-6.2,2.8-2.2-1.7-1.6-5.5,1-6.5h0Z"/>
    <path class="st1" d="M212.2,432.3c2.4-1,5.5,1,5.2,3.7.1,3.1-4,4.8-6.2,2.8-2.2-1.7-1.6-5.6,1-6.5Z"/>
    <path class="st1" d="M227.2,432.3c2.8-1.1,5.9,1.8,5,4.6-.6,2.9-4.7,3.8-6.5,1.5-1.9-1.9-.9-5.3,1.6-6.1Z"/>
    <path class="st1" d="M241.3,432.6c2.4-1.7,6.1.4,5.9,3.3.1,3-3.7,4.8-6,3-2.2-1.4-2.1-5.1.1-6.4Z"/>
    <path class="st1" d="M256.3,432.6c2.4-1.6,6.1.5,5.8,3.5,0,2.9-3.6,4.7-5.9,3-2.3-1.3-2.2-5.2.1-6.5Z"/>
    <path class="st1" d="M197.2,447.3c2.4-1.2,5.7,1,5.3,3.7,0,2.6-3.2,4.4-5.4,3.2-2.9-1.2-2.8-5.9.1-6.9Z"/>
    <path class="st1" d="M242.1,447.2c2.5-1,5.4,1.1,5.2,3.8,0,2.9-3.7,4.7-6,3-2.6-1.6-2-5.9.8-6.8Z"/>
    <path class="st1" d="M257.1,447.1c2.4-.9,5.3,1.2,5,3.8,0,2.9-3.6,4.6-5.9,3-2.6-1.6-2-6,1-6.8Z"/>
    <path class="st1" d="M588.3,841.5c6.2-2.2,13,4.2,11.3,10.5-1.1,6.7-10.4,9.4-15,4.4-4.9-4.4-2.7-13.4,3.7-14.9h0Z"/>
    <path class="st1" d="M623.3,841.6c6.3-2.6,13.6,3.8,11.7,10.4-1.1,6.5-10.1,9.2-14.7,4.6-5-4.2-3.2-13.1,3-15h0Z"/>
    <path class="st1" d="M660.4,841.6c6.3-2.5,13.4,4,11.6,10.5-1.2,6.5-10.1,9.2-14.8,4.6-4.9-4.2-3.1-13.2,3.2-15Z"/>
    <path class="st1" d="M552.5,841.5c6.2-2.2,13,4.2,11.3,10.5-1.1,6.7-10.4,9.4-15,4.4-4.9-4.4-2.7-13.4,3.7-14.9h0Z"/>
    <path class="st1" d="M775.9,858.1c0,2.9-1,5.1-3,6.7s-5,2.3-9.1,2.3-3.8-.1-5.3-.4c-1.5-.3-2.8-.7-4.1-1.2v-6.4c1.4.7,3.1,1.2,4.9,1.7s3.4.7,4.8.7c2.8,0,4.2-.8,4.2-2.4s-.2-1.1-.6-1.5c-.4-.4-1-.8-1.9-1.3s-2.1-1-3.7-1.7c-2.2-.9-3.8-1.8-4.8-2.5-1-.8-1.8-1.7-2.2-2.7-.5-1-.7-2.2-.7-3.7,0-2.5,1-4.5,2.9-5.8,2-1.4,4.7-2.1,8.3-2.1s6.8.8,10,2.2l-2.3,5.6c-1.4-.6-2.8-1.1-4-1.5s-2.5-.6-3.8-.6c-2.3,0-3.4.6-3.4,1.8s.4,1.3,1.1,1.8,2.3,1.3,4.8,2.3c2.2.9,3.8,1.7,4.9,2.5,1,.8,1.8,1.7,2.3,2.7.5,1,.7,2.2.7,3.6h0Z"/>
    <path class="st1" d="M794.8,867.1c-4.6,0-8.1-1.3-10.7-3.8s-3.9-6.1-3.9-10.7,1.2-8.4,3.6-11c2.4-2.6,5.7-3.9,9.9-3.9s7.1,1.1,9.4,3.4,3.3,5.4,3.3,9.5v3.8h-18.3c0,2.2.7,3.9,2,5.2,1.2,1.2,2.9,1.8,5.1,1.8s3.3-.2,4.8-.5,3.1-.9,4.8-1.7v6c-1.3.7-2.8,1.2-4.3,1.5-1.5.3-3.4.5-5.6.5h0ZM793.7,843.2c-1.6,0-2.9.5-3.9,1.6s-1.5,2.5-1.6,4.4h10.9c0-1.9-.5-3.4-1.5-4.4s-2.3-1.6-3.9-1.6h0Z"/>
    <path class="st1" d="M832.4,866.6h-22.4v-4.6l13.2-17.9h-12.4v-5.9h21.2v5l-12.8,17.4h13.2v5.9h0Z"/>
    <path class="st1" d="M863.8,852.3c0,4.6-1.2,8.2-3.7,10.8-2.4,2.6-5.8,3.9-10.2,3.9s-5.1-.6-7.2-1.8-3.7-2.9-4.8-5.1-1.7-4.8-1.7-7.8c0-4.6,1.2-8.2,3.6-10.8,2.4-2.6,5.8-3.9,10.2-3.9s5.1.6,7.2,1.8,3.7,2.9,4.8,5.1c1.1,2.2,1.7,4.8,1.7,7.8h0ZM844.2,852.3c0,2.8.5,4.9,1.4,6.4s2.4,2.2,4.5,2.2,3.5-.7,4.5-2.2c.9-1.4,1.4-3.6,1.4-6.4s-.5-4.9-1.4-6.3-2.4-2.1-4.5-2.1-3.5.7-4.5,2.1-1.4,3.5-1.4,6.3h0Z"/>
    <path class="st1" d="M896.4,866.6h-7.7v-16.6c0-2-.4-3.6-1.1-4.6-.7-1-1.9-1.5-3.5-1.5s-3.7.7-4.7,2.2-1.5,3.8-1.5,7.2v13.4h-7.7v-28.4h5.9l1,3.6h.4c.9-1.4,2-2.4,3.6-3.1,1.5-.7,3.2-1,5.2-1,3.3,0,5.8.9,7.5,2.7s2.6,4.4,2.6,7.7v18.5h0Z"/>
    <path id="d" class="st1" d="M382.3,655.8c-10-12.8-28.4-15.1-41.2-5.2-1.9,1.5-3.7,3.2-5.2,5.2-3.7,5.2-5.6,11.5-5.5,17.9,0,6.4,1.8,12.7,5.5,17.9,10,12.8,28.4,15.1,41.2,5.2,1.9-1.5,3.7-3.2,5.2-5.2,3.7-5.2,5.6-11.5,5.5-17.9,0-6.4-1.8-12.7-5.5-17.9ZM373.1,680.5c-1.7,6.4-7.4,11-14,11.4-6.9.2-11.9-5.1-14-11.4-1.5-4.4-1.5-9.1,0-13.5,1.7-6.4,7.4-11,14-11.4,6.9-.2,11.9,5.1,14,11.4,1.5,4.3,1.5,9.1,0,13.4h0ZM161.8,701.5c0,.9-.7,1.7-1.7,1.7h-9.6c-.9,0-1.7-.7-1.7-1.7v-79.2c0-.9.7-1.7,1.7-1.7h9.6c.9,0,1.7.7,1.7,1.7v79.2h0ZM139.2,701.5c0,.9-.7,1.7-1.7,1.7h-9.6c-.9,0-1.7-.7-1.7-1.7v-79.2c0-.9.7-1.7,1.6-1.7h9.6c.9,0,1.7.7,1.7,1.7v79.2h0,0ZM328.2,647.7v6.7c.1,1-.6,1.8-1.5,2-.2,0-.5,0-.7,0-10.9-2.2-17.6,2.6-17.6,12.7v32.5c0,.9-.7,1.7-1.7,1.7h-9.6c-.9,0-1.7-.7-1.7-1.7h0v-33.2c-.1-6.3,2.5-12.5,7.1-16.8,4.7-4.6,11-7.2,17.6-7.1,2.3,0,4.5.2,6.7.6,1.1.4,1.3,1,1.3,2.8h0c0,0,0,0,0,0ZM286.9,673.7c.1-6.4-1.8-12.7-5.5-17.9-10-12.8-28.4-15.1-41.2-5.2-1.9,1.5-3.7,3.2-5.2,5.2-7.5,10.8-7.5,25.1,0,35.9,5.5,7.3,14.1,11.5,23.2,11.4,5.9,0,11.6-1.7,16.5-5v7.1c0,9.6-8.4,11.4-13.8,11.7-3.7.1-7.4,0-11.1-.6-1.5-.2-2.5,0-2.5,1.6v8.5c0,.8.7,1.4,1.5,1.4h0c12.5,1.1,20.9.8,27.2-2.8,4.4-2.6,7.7-6.8,9.2-11.7,1.1-3.8,1.6-7.7,1.6-11.7v-27.8h0,0ZM258.2,691.8c-6.9,0-11.9-5.1-14-11.4-1.5-4.4-1.5-9.1,0-13.5,2.1-6.3,7.1-11.4,14-11.4,15.5,0,16,15.8,16,18.1s-.5,18.1-16,18.1ZM117.4,667.9c0-7.6-1.7-13.5-5.4-17.5s-11.1-6-17.9-6c-6.9,0-13.7,1.8-19.6,5.2-.4.2-.6.6-.6,1.1l.5,8.4c.2.8.9,1.4,1.8,1.2.3,0,.5-.2.7-.3,8.4-5.2,18.5-6.1,23.6-3.5,2.9,1.7,4.6,4.8,4.5,8.1v1.2h-14c-6,0-24.5,2.2-24.5,19.2v.2c-.3,5.2,1.9,10.3,6,13.6,4.4,3.1,9.6,4.6,15,4.3h28.4c.9,0,1.7-.7,1.7-1.7v-33.6h0c0,0,0,0,0,0ZM105,692.8h-16.7c-2.2,0-4.2-.8-5.9-2.1-1.8-1.3-2.8-3.3-2.8-5.5,0-3,2-9.1,12.2-9.1h13.2v16.7h0ZM197.3,644.4c-17.1,0-24.6,11.5-27.1,21.2-.7,2.6-1,5.3-1,8,0,6.4,1.8,12.7,5.5,17.9,5.6,7.2,14.1,11.3,23.2,11.4,9.3.3,15.4-1.2,20.2-3.9.9-.6,1.4-1.8,1.1-2.8v-7.5c0-1.5-.9-2.2-2.2-1.3-5.5,3.5-12.1,5.1-18.6,4.5-7.7,0-14.1-5.9-15-13.6h38.1c.9,0,1.6-.7,1.6-1.5.7-10.4-2.4-32.3-25.8-32.3h0ZM183.6,668c.3-7.2,6.4-12.7,13.5-12.4,0,0,.1,0,.2,0,6.4-.4,11.8,4.5,12.2,10.8,0,.5,0,1,0,1.5h-25.9,0Z"/>
    <path id="e" class="st2" d="M431.6,703.5h-4.2v-55.3h-19.2v-3.9h42.6v3.9h-19.2v55.3ZM470.6,704.3c-5.6.3-11.1-1.8-15-5.9-3.8-4.6-5.7-10.5-5.4-16.5-.3-6,1.5-12,5.2-16.8,3.4-4.2,8.6-6.5,14-6.3,4.7-.2,9.2,1.8,12.3,5.4,3.2,4.2,4.8,9.4,4.5,14.7v3.2h-31.7c-.3,5,1.2,9.9,4.2,13.8,3,3.3,7.4,5,11.9,4.8,2.2,0,4.4-.2,6.6-.5,2.5-.5,4.9-1.3,7.2-2.3v3.6c-2.2,1-4.5,1.7-6.9,2.2-2.3.4-4.6.6-7,.6h0ZM469.4,662.2c-3.9-.2-7.6,1.4-10.2,4.2-2.8,3.4-4.4,7.7-4.5,12.1h27.2c.2-4.2-.9-8.5-3.3-12-2.2-2.8-5.6-4.5-9.2-4.3h0ZM515.9,704.3c-5.6.3-11-1.9-14.8-6-3.8-4.7-5.7-10.6-5.3-16.6-.4-6.2,1.6-12.2,5.5-17,3.9-4.2,9.5-6.4,15.2-6.1,3.7,0,7.4.7,10.9,2l-1.1,3.6c-3.2-1.2-6.5-1.8-9.9-1.9-4.6-.3-9.2,1.5-12.3,5-3,4.2-4.5,9.2-4.2,14.4-.3,5,1.2,9.9,4.2,13.9,2.9,3.4,7.2,5.3,11.7,5,3.8,0,7.6-.7,11.1-2.1v3.7c-3.5,1.5-7.2,2.2-11,2.1h0ZM568.3,703.5v-28.5c.3-3.5-.7-6.9-2.8-9.6-2.3-2.2-5.5-3.3-8.7-3-4.2-.4-8.4,1.1-11.5,4-2.5,2.7-3.7,7-3.7,12.9v24.3h-4v-62.9h4v20l-.2,5.6h.3c1.5-2.5,3.6-4.5,6.2-5.7,3-1.3,6.1-1.9,9.3-1.8,10,0,15,5.4,15,16.1v28.8h-4,0ZM644.7,661.3c.3,5.1-1.9,10-5.8,13.2-4.8,3.3-10.7,4.9-16.5,4.6h-9.1v24.4h-4.1v-59.1h14.5c14.1,0,21.1,5.7,21.1,17h0ZM613.2,675.5h8.1c6.7,0,11.5-1.1,14.4-3.3,3.2-2.6,4.8-6.6,4.5-10.7.3-3.9-1.3-7.6-4.2-10.1-3.9-2.5-8.4-3.7-13-3.3h-9.8v27.4h0ZM692.9,681.4c.4,6.1-1.5,12-5.2,16.8-3.6,4.1-8.9,6.3-14.4,6-3.6,0-7.1-.9-10.2-2.8-3-1.9-5.4-4.7-6.8-8-1.6-3.8-2.4-7.9-2.3-12-.4-6,1.5-12,5.2-16.8,3.6-4.1,8.9-6.3,14.3-6,5.4-.3,10.7,2,14.2,6.1,3.7,4.8,5.5,10.7,5.2,16.7h0ZM658.2,681.4c-.3,5,1.1,10,4,14.1,2.7,3.4,6.9,5.3,11.3,5.1,4.4.2,8.5-1.7,11.3-5.1,2.9-4.1,4.3-9.1,4-14.1.3-5-1.1-10-4-14.1-2.8-3.4-7-5.2-11.3-5-4.3-.2-8.5,1.6-11.2,5-2.9,4.1-4.3,9.1-4,14.1h0ZM721.2,658.7c2.8,0,5.7.5,8.2,1.7,2.6,1.4,4.7,3.5,6.2,6h.2c-.2-3.4-.2-6.7-.2-10v-15.8h4v62.9h-2.6l-1-6.7h-.3c-3.1,4.9-8.6,7.8-14.4,7.5-5.3.3-10.4-1.8-13.9-5.7-3.2-3.8-4.8-9.3-4.8-16.5s1.6-13.4,4.8-17.4c3.4-4.1,8.5-6.4,13.9-6h0ZM721.2,662.3c-4.2-.3-8.3,1.6-10.8,5.1-2.7,4.4-4,9.5-3.6,14.7,0,12.5,4.8,18.7,14.5,18.7,4.1.3,8.2-1.2,10.9-4.3,2.3-2.9,3.5-7.7,3.5-14.3v-.7c0-6.8-1.1-11.7-3.4-14.7-2.8-3.2-6.9-4.8-11.1-4.5h0ZM771.9,704.3c-5.6.3-11-1.9-14.8-6-3.8-4.7-5.7-10.6-5.3-16.6-.4-6.2,1.6-12.2,5.5-17,3.9-4.2,9.5-6.4,15.2-6.1,3.7,0,7.4.7,10.9,2l-1.1,3.6c-3.2-1.2-6.5-1.8-9.9-1.9-4.6-.3-9.2,1.5-12.3,5-3,4.2-4.5,9.2-4.2,14.4-.3,5,1.2,9.9,4.2,13.9,2.9,3.4,7.2,5.3,11.7,5,3.8,0,7.6-.7,11.1-2.1v3.7c-3.5,1.5-7.3,2.2-11,2.1h0ZM820.4,703.5l-1-7h-.3c-1.8,2.5-4.1,4.5-6.8,6-2.6,1.2-5.4,1.8-8.3,1.8-3.7.2-7.3-1-10.1-3.3-2.5-2.4-3.8-5.7-3.6-9.2-.1-4,1.9-7.9,5.4-10,4.7-2.7,10.1-4,15.5-3.8l8.4-.2v-2.9c.2-3.3-.7-6.7-2.5-9.5-2.1-2.3-5.1-3.5-8.2-3.2-4.4,0-8.8,1.3-12.7,3.4l-1.5-3.5c4.5-2.2,9.3-3.3,14.3-3.4,4-.3,7.9,1,10.8,3.8,2.7,3.3,3.9,7.5,3.6,11.7v29.3h-2.9ZM804.2,700.6c4.1.2,8.1-1.2,11.1-4,2.8-3,4.3-7.1,4.1-11.2v-4.3l-7.7.3c-4.6,0-9.1.9-13.2,2.9-2.6,1.6-4.1,4.5-3.9,7.6-.1,2.4.8,4.8,2.5,6.4,2,1.6,4.6,2.5,7.1,2.3h0ZM864.9,692c.2,3.6-1.5,7-4.5,9.1-3.8,2.3-8.3,3.5-12.7,3.2-4.8.2-9.6-.7-14-2.7v-4.3c4.3,2.2,9.1,3.3,14,3.3,3.4.2,6.9-.5,9.9-2.2,2.1-1.2,3.4-3.4,3.4-5.8,0-2.2-1-4.2-2.7-5.6-2.7-2-5.7-3.5-8.8-4.5-3.2-1-6.3-2.4-9.3-4.1-1.6-1-3-2.3-4-3.9-.9-1.6-1.4-3.4-1.4-5.3,0-3.2,1.5-6.1,4.2-7.8,3.5-2.1,7.5-3.1,11.6-2.9,4.6,0,9.2.9,13.5,2.7l-1.5,3.6c-3.8-1.7-7.9-2.6-12-2.7-3-.1-5.9.5-8.5,1.8-1.9.9-3.2,2.8-3.2,4.9,0,2.1.8,4.1,2.5,5.5,2.9,2,6.2,3.6,9.6,4.6,3,1,5.9,2.3,8.7,3.9,1.6,1,3,2.3,4.1,3.9.9,1.5,1.4,3.3,1.4,5.1h0ZM887.8,700.7c2.2,0,4.5-.2,6.6-.7v3.2c-2.2.7-4.4,1-6.7,1-3.2.3-6.3-.9-8.6-3.1-2.1-2.8-3.1-6.3-2.8-9.8v-28.4h-6.5v-2.3l6.5-1.8,2-10h2.1v10.6h12.9v3.5h-12.9v27.8c-.2,2.6.4,5.2,1.8,7.5,1.3,1.7,3.4,2.6,5.6,2.4h0Z"/>
    <path class="st1" d="M552.5,841.5c6.2-2.2,13,4.2,11.3,10.5-1.1,6.7-10.4,9.4-15,4.4-4.9-4.4-2.7-13.4,3.7-14.9h0Z"/>
    <path class="st1" d="M516.7,841.5c6.2-2.2,13,4.2,11.3,10.5-1.1,6.7-10.4,9.4-15,4.4-4.9-4.4-2.7-13.4,3.7-14.9h0Z"/>
    <path class="st1" d="M718.1,843.4c3.6,0,6.4,1,8.6,3s3.2,4.8,3.2,8.3-1.3,7.3-3.8,9.6-6.2,3.4-11,3.4-7.5-.7-10-2v-6.8c1.3.7,2.9,1.3,4.7,1.7s3.5.7,5.1.7c4.8,0,7.2-2,7.2-5.9s-2.5-5.6-7.4-5.6-1.9,0-3,.3-2,.4-2.6.6l-3.1-1.7,1.4-18.9h20.1v6.7h-13.3l-.7,7.3.9-.2c1-.2,2.3-.4,3.8-.4Z"/>
  </g>
</svg>