<?xml version="1.0" encoding="UTF-8"?><svg id="b" xmlns="http://www.w3.org/2000/svg" viewBox="0 0 959.92 959.92"><defs><style>.f{fill:#ff5a00;}.g{fill:#fff;}.h{fill:#222;}</style></defs><g id="c"><rect class="f" width="959.92" height="959.92"/><path class="g" d="M712.11,62.16c32.03-2.48,64.96,9.29,87.85,31.89,2.04,1.85.65,5.56-2.02,5.84-1.93.33-3.24-1.32-4.56-2.4-15.75-14.74-36.11-24.44-57.46-27.5-31.39-4.74-64.68,5.38-87.94,27.02-1.63,1.36-3.41,3.64-5.82,2.7-2.61-.89-3.02-4.62-.81-6.19,18.97-18.28,44.48-29.57,70.76-31.36Z"/><path class="g" d="M708.51,93.73c22.84-3.36,47.04,3.22,64.79,18.05,2.21,1.43,1.89,5.13-.58,6.07-2.44,1.14-4.42-1.24-6.24-2.45-16.7-12.9-38.98-18.12-59.7-14.28-13.89,2.43-26.89,9-37.46,18.28-3.04,3.5-8.41-1.9-4.9-4.91,12.1-11.21,27.78-18.43,44.09-20.76Z"/><path class="g" d="M714.43,129.78c12.63-1.94,26,1.67,35.87,9.8,10.58,8.49,16.98,21.85,16.98,35.42.05,17.99,0,35.99.03,53.99.08,5.66-.14,11.41-1.73,16.88-3.41,12.43-12.36,23.16-23.92,28.84-13.63,6.82-30.7,6.22-43.78-1.63-11.25-6.58-19.45-18.16-21.79-31-1.18-5.95-.76-12.04-.8-18.06-.03-12.98.03-25.97-.02-38.95.07-7.62-.48-15.43,1.86-22.8,4.77-16.84,19.94-30.11,37.3-32.49ZM713.8,137.03c-11.11,2.12-21.07,9.4-26.55,19.29-4.52,7.65-5.37,16.72-4.96,25.43,9.56.11,19.13-.21,28.69.13,4.12,0,4.03,6.99-.09,6.81-9.52.17-19.04.02-28.56.04-.06,5.34-.03,10.68-.03,16.02,16.22.05,32.44-.1,48.66.06,2.95-.24,4.49,3.82,2.46,5.8-1.11,1.33-3,1.04-4.51,1.16-15.54-.03-31.07,0-46.61-.02-.01,5.29-.01,10.58,0,15.87,11.87.11,23.77-.21,35.64.14,3.86.16,3.76,6.75-.11,6.77-11.88.26-23.77,0-35.64.11.59,14.48,9.53,28.28,22.83,34.21,9.73,4.56,21.39,4.75,31.28.55,11.07-4.59,19.74-14.57,22.7-26.19,1.61-5.92,1.28-12.1,1.3-18.16-.01-14.02-.01-28.04,0-42.06-.02-4.7.19-9.44-.59-14.1-1.63-9.99-7.36-19.23-15.58-25.14-8.61-6.31-19.87-8.86-30.33-6.72Z"/><path class="g" d="M330.07,213.2c10.06-11.79,24.45-19.79,39.78-22.1,13.88-2.13,28.46.2,40.86,6.86,15.99,8.39,28.2,23.67,32.75,41.15,5.31,19.49.91,41.22-11.46,57.17,4.31,6.86,8.96,13.52,13.15,20.46,1.6,2.18-.56,5.42-3.18,4.98-18.03.08-36.06,0-54.09.03-5.99-.04-12.03.28-17.98-.72-17.27-2.55-33.27-12.42-43.39-26.64-9.22-12.72-13.55-28.85-12.02-44.48,1.19-13.47,6.75-26.48,15.58-36.71ZM343.56,209.7c-12.44,9.68-20.71,24.53-22.26,40.23-1.6,14.77,2.68,30.09,11.76,41.85,8.85,11.67,22.19,19.85,36.63,22.33,6.36,1.2,12.85.85,19.29.89h47.01c-3.64-5.77-7.55-11.38-11.07-17.22-1.54-2.18.58-4.28,1.79-5.98,7.1-9.05,11.26-20.3,12.04-31.76,1.05-14.63-3.67-29.57-12.93-40.94-9.91-12.4-25-20.5-40.83-21.77-14.72-1.34-29.85,3.2-41.43,12.37Z"/><path class="g" d="M547.32,192.44c2.15-1.65,5.69-.19,5.97,2.54.59,2.83-2.68,5.39-5.27,4.1-2.71-.97-3.14-5.12-.7-6.64Z"/><path class="g" d="M283.32,195.68c6.36-1.72,13.54.05,18.32,4.6,4.55,4.2,6.86,10.66,5.98,16.8-.77,6.39-5,12.21-10.82,14.95-6.15,3.02-13.89,2.46-19.51-1.48-5.68-3.81-8.99-10.79-8.35-17.61.46-8.05,6.58-15.3,14.38-17.26ZM284.26,202.49c-5.5,1.83-9.33,7.71-8.52,13.5.65,6.76,7.46,12.13,14.21,11.07,7.06-.7,12.45-8.18,10.8-15.11-1.3-7.23-9.57-12.03-16.49-9.46Z"/><path class="g" d="M547.3,206.51c2.17-1.66,5.72-.19,5.99,2.56.46,2.44-1.92,4.8-4.36,4.31-3.32-.23-4.39-5.15-1.63-6.87Z"/><path class="g" d="M577.22,206.43c2.45-1.78,6.37.45,5.85,3.53-.02,2.81-3.61,4.45-5.84,2.87-2.3-1.34-2.29-5.06-.01-6.4Z"/><path class="g" d="M622.22,206.25c2.15-1.23,5.24.23,5.54,2.73.73,3.03-3.06,5.62-5.66,3.95-2.57-1.29-2.51-5.48.12-6.68Z"/><path class="g" d="M637.1,206.24c2.26-1.24,5.44.32,5.58,2.95.52,2.97-3.08,5.31-5.63,3.78-2.59-1.26-2.55-5.5.05-6.73Z"/><path class="g" d="M239.39,208.5c2.71-1.27,6.06,1.5,5.18,4.42-.54,2.79-4.47,3.95-6.39,1.82-1.96-1.75-1.28-5.36,1.21-6.24Z"/><path class="g" d="M254.32,208.49c2.34-1.06,5.38.89,5.24,3.49.28,3.17-4.07,5.16-6.31,2.93-2.15-1.69-1.51-5.53,1.07-6.42Z"/><path class="g" d="M223.29,209.27c1.92-2.01,5.83-1,6.36,1.81.86,2.65-1.93,5.44-4.59,4.66-2.88-.52-3.91-4.55-1.77-6.47Z"/><path class="g" d="M474.44,212.73c6.72-2.53,14.26,4.27,12.43,11.22-1.18,7.08-10.92,10.13-15.98,5.08-5.42-4.57-3.29-14.41,3.55-16.3Z"/><path class="g" d="M.04,234.64c17.9-11.84,39.5-17.65,60.89-17.5,12.69.24,26.14,3.31,35.61,12.28,7.59,6.93,11.28,17.14,11.99,27.22,5.51.16,11.18-.66,16.54.96,8.49,2.52,14.97,10.49,15.7,19.31,1.14,9.67-4.78,19.57-13.82,23.16-5.59,2.61-12.38.61-17.59,4.3-7.51,4.48-10.21,15.16-5.63,22.64,2.99,5.37,9.09,8.58,15.18,8.47,13.42.06,26.84,0,40.26.02v5.75c-13.42-.01-26.83.02-40.25,0-6.13.09-12.3-2.25-16.62-6.65-5.37-5.28-7.73-13.36-6.11-20.71,1.59-8,7.9-14.81,15.76-16.99,4.38-1.31,9.22-.36,13.39-2.47,6.55-2.9,10.67-10.34,9.62-17.44-.87-7.51-7.42-13.96-15-14.52-3.81-.24-7.63-.06-11.44-.09-.71,10.3-4.63,20.71-12.53,27.63-9.74,8.83-23.34,11.7-36.14,11.76-21.02-.05-42.2-5.86-59.81-17.48.01-2.58.01-5.17-.04-7.75,7.74,6.83,17.38,11.04,27.08,14.28,13.74,4.32,28.42,6.41,42.76,4.45,9.11-1.27,18.28-4.84,24.51-11.83,6.22-6.82,8.68-16.33,8.34-25.4-.16-9.53-3.87-19.32-11.36-25.48-8.11-6.93-19.06-9.24-29.46-9.62-14.89-.36-29.82,2.64-43.53,8.41-6.56,2.85-13.05,6.19-18.34,11.08.05-2.6.05-5.19.04-7.79Z"/><path class="g" d="M533.09,219.22c2.48-1.1,5.55.94,5.35,3.69,0,3.08-4.03,4.79-6.3,2.78-2.14-1.7-1.6-5.46.95-6.47Z"/><path class="g" d="M563.09,219.14c2.45-.91,5.42,1.11,5.11,3.81.06,2.89-3.69,4.63-5.94,2.95-2.56-1.54-2-5.86.83-6.76Z"/><path class="g" d="M607.21,219.42c2.49-1.53,6.06.64,5.71,3.59-.07,2.76-3.52,4.52-5.8,2.99-2.48-1.32-2.38-5.31.09-6.58Z"/><path class="g" d="M623.16,219.03c2.75-.77,5.52,2.24,4.47,4.91-.74,2.61-4.44,3.51-6.3,1.54-2.13-1.93-1.09-5.99,1.83-6.45Z"/><path class="g" d="M56.58,231.53c1.89-.37,3.81-.37,5.69.03.05,7.4.02,14.79.02,22.19,6.88.12,13.77-.25,20.64.15,1.85,1.08,1.59,3.97.3,5.41-8.06.44-16.16.12-24.23.16-2.03.41-2.52-1.93-2.43-3.45-.08-8.17-.03-16.33,0-24.49Z"/><path class="g" d="M562.4,232.61c2.08-1.34,5.29-.13,5.72,2.39.67,2.44-1.65,5.1-4.17,4.62-3.51-.11-4.56-5.39-1.55-7.01Z"/><path class="g" d="M577.4,232.55c2.42-1.5,6.02.52,5.69,3.45.12,2.91-3.61,4.7-5.9,3.05-2.33-1.43-2.21-5.26.21-6.5Z"/><path class="g" d="M622.26,232.45c2.5-1.35,5.9.81,5.56,3.68-.08,2.73-3.44,4.49-5.74,3.04-2.56-1.35-2.47-5.53.18-6.72Z"/><path class="g" d="M637.31,232.39c2.46-1.2,5.7.87,5.4,3.66-.01,2.74-3.39,4.6-5.71,3.13-2.64-1.34-2.44-5.71.31-6.79Z"/><path class="g" d="M654.87,232.98c1.63-1.65,5.07-1.04,5.65,1.35.4,2.22.33,4.48.55,6.73,1.31,16.17,9.68,31.53,22.33,41.64,10.78,8.72,24.63,13.57,38.5,13.33,16.16-.03,32.1-7.06,43.19-18.79,10.01-10.48,16.12-24.66,16.59-39.17.27-1.69-.21-3.81,1.19-5.1,1.85-1.91,5.69-.7,5.83,2.08.65,24.35-13.55,48.22-34.96,59.73-8.86,4.92-18.85,7.6-28.94,8.26-.08,19.3.15,38.62-.11,57.91-.05,3.91-6.62,4.06-6.78.14-.28-19.34-.03-38.7-.11-58.05-15.29-.87-30.24-6.9-41.6-17.2-13.81-12.27-22.16-30.41-22.42-48.89.05-1.36-.12-3.02,1.09-3.97Z"/><path class="g" d="M207.29,234.45c12.22-.17,24.45-.06,36.67-.05,8.81-.08,16.7,7.81,16.46,16.66-.01,11.96.04,23.92-.03,35.88-.04,8.61-7.84,16.12-16.41,16.04-12.05.02-24.12.08-36.17-.03-8.4-.13-15.82-7.59-15.94-15.99-.15-11.97-.08-23.96-.04-35.94-.11-8.42,7.03-16.13,15.46-16.57ZM207.19,240.25c-5.29.56-9.66,5.47-9.61,10.79-.08,11.63-.04,23.27-.02,34.91-.27,6.09,5.22,11.59,11.31,11.29,11.7,0,23.4.05,35.1-.02,5.87.05,10.87-5.32,10.76-11.11.18-10.04-.02-20.07.09-30.11-.07-3.49.28-7.27-1.61-10.38-2.03-3.58-6.15-5.69-10.23-5.5-11.93.09-23.87-.17-35.79.13Z"/><path class="g" d="M356.54,238h9.63v9.5h-9.62c-.01-3.17-.01-6.33-.01-9.5Z"/><path class="g" d="M395.04,238h9.64c-.01,3.17-.01,6.34-.01,9.51-3.21-.01-6.42-.01-9.62-.01-.01-3.17-.01-6.33-.01-9.5Z"/><path class="g" d="M214.4,255.62c7.46-.53,15-.22,22.48-.16,1.89-.13,2.76,1.86,2.63,3.49.1,6.35.04,12.71.03,19.06.08,1.69-.47,4.01-2.6,3.91-7.34.1-14.7.25-22.02-.07-1.93-.08-2.12-2.3-2.12-3.76-.07-5.68.03-11.37-.03-17.05.15-1.85-.46-4.45,1.63-5.42ZM218.55,261.13c-.01,5.08-.01,10.16,0,15.24h15.24c0-5.08,0-10.16.01-15.24-5.09-.01-10.17,0-15.25,0Z"/><path class="g" d="M348.15,263.34c1.69-1.38,3.73.5,5.4,1.08,17.3,9.07,39.4,9.78,56.42-.34,1.42-.96,3.73-1.81,4.77.13,1.1,2.61-1.81,3.9-3.59,4.95-19.31,10.52-43.86,9.1-62.66-1.85-1.49-.69-1.65-3.03-.34-3.97Z"/><path class="g" d="M495.07,268.92c-.19-2.83,1.96-5.62,4.8-5.97,2.98-.39,6.01-.18,9.02-.21,38.02.03,76.05-.03,114.07.03,3.53-.38,6.97,2.57,6.69,6.2.05,24.91.01,49.82.01,74.73,2.9.01,7.46.21,7.32,4.21-.17,3.91,1.84,11.42-4,11.8-46.7.1-93.4,0-140.1.05-2.04.19-4.57-.59-5.02-2.87-.32-3.53-.52-7.18.18-10.67,1.18-2.78,4.58-2.21,7.01-2.51.01-24.93-.04-49.86.02-74.79ZM501.41,269.27c.03,24.87,0,49.74.01,74.6h121.87c0-24.87.01-49.75,0-74.62-40.63.02-81.25-.03-121.88.02ZM494.05,350.25c0,.78-.01,2.34-.01,3.12,45.55,0,91.09.01,136.63,0v-3.12c-45.54,0-91.08.01-136.62,0Z"/><path class="g" d="M56.54,265.48c1.9-.51,3.86-.53,5.76.01-.07,8.17.11,16.34-.05,24.51.62,3.39-6.2,3.43-5.65.05-.17-8.19.01-16.38-.06-24.57Z"/><path class="g" d="M583.15,286.19c2.16-.84,4.93,2.27,2.99,4-8.34,9.98-17.01,19.69-25.46,29.57-2.24,2.47-4.18,5.25-6.78,7.36-2.22.1-4.53-2.76-2.47-4.48,8.86-10.5,17.99-20.76,26.9-31.21,1.56-1.79,2.99-3.71,4.82-5.24Z"/><path class="g" d="M605.07,287.04c1.4-2.12,4.56-.36,4.67,1.84-.68,1.51-1.84,2.74-2.9,4-10.1,11.47-19.93,23.17-30.08,34.59-1.91-.78-4.7-2.92-2.4-4.93,10.18-11.88,20.42-23.72,30.71-35.5Z"/><path class="g" d="M178.12,297.05c2.68-.66,5.28,2.15,4.44,4.77-.61,2.65-4.32,3.76-6.25,1.8-2.35-1.9-1.19-6.16,1.81-6.57Z"/><path class="g" d="M177.1,312.33c2.84-1.73,6.63,1.51,5.39,4.58-.74,2.82-4.93,3.55-6.62,1.18-1.52-1.78-.84-4.75,1.23-5.76Z"/><path class="g" d="M32.31,322.55c6.74-2.5,14.26,4.31,12.41,11.26-1.18,6.99-10.7,10.06-15.81,5.2-5.6-4.5-3.55-14.56,3.4-16.46Z"/><path class="g" d="M230.23,324.48c5.01-1.28,10.57.31,14.15,4.04,28.45,27.93,56.81,55.95,85.26,83.88,2.51,2.83,6.93,3.57,10.14,1.45,30.61-18.38,61.18-36.85,91.77-55.29,3.57-2.05,6.99-4.8,11.21-5.3,4.08-.6,8.33.69,11.47,3.35,7.12,5.9,14.05,12.03,21.17,17.94,1.77,1.57,4.14,2.16,6.47,2.09,55.37-.2,110.74-.22,166.1-.37,2.85-.54,5.28,2.91,3.47,5.32-1.2,1.89-3.72,1.26-5.58,1.44-54.3.19-108.61.18-162.91.37-3.97.15-8.17-.48-11.3-3.12-7.35-6-14.42-12.35-21.74-18.38-2.65-2.38-6.72-2.6-9.65-.61-32.25,19.42-64.49,38.88-96.74,58.3-5.61,3.63-13.56,2.84-18.26-1.93-28.6-28.07-57.11-56.24-85.7-84.31-2.47-2.65-6.65-3.28-9.77-1.42-28.3,15.35-56.58,30.74-84.87,46.11-4.09,2.14-8.12,5.14-12.98,4.96-21.37-.04-42.75.09-64.11-.07-2.72.17-4.19-3.56-2.36-5.44,1.01-1.42,2.92-1.15,4.42-1.26,20.35.03,40.71.01,61.06.03,3.6.22,6.6-2.01,9.63-3.6,26.98-14.71,53.99-29.34,80.98-44.04,2.82-1.5,5.56-3.28,8.67-4.14Z"/><path class="g" d="M332.33,346.63c8.77-2.89,19.15,1.46,23.17,9.78,3.42,6.65,2.59,15.27-2.2,21.04-3.88,4.89-10.2,7.67-16.43,7.18-8.92-.34-16.91-7.72-18-16.58-1.56-9.19,4.54-18.81,13.46-21.42ZM333.3,353.51c-5.54,2.21-9.01,8.67-7.53,14.5,1.26,6.29,7.87,10.86,14.21,9.76,7.16-.87,12.46-8.65,10.44-15.64-1.66-7.23-10.3-11.7-17.12-8.62Z"/><path class="g" d="M28.33,360.63c6.76-2.62,14.9-1.1,20.18,3.89,5.53,4.98,7.63,13.25,5.33,20.3-2.56,8.31-11.18,14.2-19.86,13.42-9.12-.38-17.16-8.08-18.02-17.14-1.19-8.62,4.22-17.49,12.37-20.47ZM31.42,366.76c-5.52,1.71-9.42,7.51-8.73,13.29.47,6.87,7.38,12.43,14.21,11.36,6.83-.72,12.13-7.7,10.92-14.47-.9-7.45-9.29-12.73-16.4-10.18Z"/><path class="g" d="M719.22,371.39c2.51-1.41,6.11.64,5.88,3.61.2,3.14-3.85,5.19-6.31,3.3-2.49-1.54-2.2-5.67.43-6.91Z"/><path class="g" d="M227.12,375.28c2.76-1.29,6.1,1.81,5.01,4.68-.62,2.51-4.04,3.52-5.99,1.89-2.38-1.62-1.72-5.68.98-6.57Z"/><path class="g" d="M242.14,375.23c2.77-1.15,5.94,1.88,4.89,4.71-.67,2.76-4.66,3.66-6.47,1.48-1.84-1.89-.98-5.47,1.58-6.19Z"/><path class="g" d="M212.39,387.56c2.63-1.02,5.66,1.69,4.94,4.42-.49,2.8-4.3,4.02-6.32,2.05-2.15-1.79-1.34-5.75,1.38-6.47Z"/><path class="g" d="M257.33,387.49c2.6-.82,5.42,1.87,4.66,4.53-.45,2.75-4.21,3.95-6.22,2.06-2.27-1.85-1.36-6,1.56-6.59Z"/><path class="g" d="M181.28,388.29c2.2-2.1,6.34-.4,6.3,2.67.34,2.77-2.92,4.95-5.37,3.7-2.5-.98-2.97-4.71-.93-6.37Z"/><path class="g" d="M718.33,388.49c2.18-2.22,6.61-.74,6.73,2.47.64,3.19-3.36,5.76-6.03,3.96-2.29-1.25-2.65-4.72-.7-6.43Z"/><path class="g" d="M441.12,390.02c1.57-1.53,4.78-.91,5.34,1.34.28,1.54.21,3.12.24,4.68-.11,27.64.07,55.28-.08,82.92.39,4.23-6.83,4.32-6.51.08-.19-28.03.02-56.07-.1-84.11.15-1.64-.32-3.7,1.11-4.91Z"/><path class="g" d="M522.47,396.68c2.27-1.66,5.6.5,5.16,3.24.05,24,.11,48.01-.02,72.01.35,3.43-5.01,4.7-6.29,1.55-.51-2.46-.25-4.99-.3-7.47.04-21.67.03-43.34,0-65.02.03-1.53-.11-3.44,1.45-4.31Z"/><path class="g" d="M197.38,402.48c2.3-.9,5.24.95,5.08,3.51.32,2.96-3.48,5.03-5.85,3.31-2.59-1.53-2.14-5.94.77-6.82Z"/><path class="g" d="M227.34,402.45c2.66-1,5.65,1.79,4.87,4.53-.53,3.02-4.9,3.93-6.7,1.53-1.73-1.96-.66-5.38,1.83-6.06Z"/><path class="g" d="M241.14,402.96c2.33-1.81,6.18.07,6.06,3.05.22,2.85-3.31,4.9-5.7,3.39-2.41-1.22-2.57-4.93-.36-6.44Z"/><path class="g" d="M421.21,404.27c2.04-1.51,5.46.09,5.16,2.77.06,19.29.16,38.6-.05,57.89-.03,3.67-6.24,3.7-6.4.09-.33-18.33,0-36.69-.16-55.03.17-1.92-.41-4.45,1.45-5.72Z"/><path class="g" d="M462.07,404.04c2.04-1.09,4.92.46,4.78,2.86.19,18.37-.02,36.74.1,55.11-.11,1.84.31,4.37-1.72,5.34-2.26,1.39-5.33-.7-4.91-3.3-.09-18.35.02-36.69-.05-55.04.05-1.76-.18-4.14,1.8-4.97Z"/><path class="g" d="M503.38,408.38c2.13-.49,4.27,1.37,4,3.58.09,15.68.04,31.37.02,47.06.61,2.83-2.74,5.34-5.16,3.57-1.67-.89-1.38-2.99-1.47-4.55.08-15.39-.06-30.78.07-46.17-.2-1.63.88-3.23,2.54-3.49Z"/><path class="g" d="M543.35,408.52c2.19-.86,4.83.98,4.51,3.39.12,15.73.06,31.46.03,47.19.46,2.59-2.28,5-4.73,3.74-1.97-.71-1.98-3.05-2-4.77,0-14.7.03-29.39-.01-44.09.01-1.95-.12-4.72,2.2-5.46Z"/><path class="g" d="M622.14,409.21c8.61-2.4,18.46,2.2,22.07,10.4,3.04,6.48,2.04,14.65-2.59,20.13-4.93,6.13-13.83,8.53-21.18,5.76-7.61-2.63-12.93-10.51-12.51-18.55.14-8.2,6.24-15.8,14.21-17.74ZM623.39,415.76c-5.91,1.69-9.96,8.19-8.6,14.24,1.11,6.38,7.85,11.1,14.24,9.82,6.68-1,11.63-8.15,10.02-14.77-1.28-6.84-9.02-11.5-15.66-9.29Z"/><path class="g" d="M668.31,409.65c7.33-2.62,16.11-.21,20.97,5.89,5.49,6.47,5.73,16.66.6,23.41-4.39,6.1-12.61,9.01-19.88,7.14-7.83-1.82-13.99-9.11-14.4-17.15-.74-8.35,4.78-16.65,12.71-19.29ZM671.41,415.65c-5.05,1.28-8.96,6.04-9.2,11.25-.54,6.57,5.01,12.82,11.6,13.09,7.11.63,13.75-5.94,13.12-13.08-.19-7.52-8.28-13.45-15.52-11.26Z"/><path class="g" d="M716.3,409.54c9.34-3.31,20.53,2.09,23.75,11.46,3.83,9.62-1.78,21.54-11.68,24.63-9.85,3.66-21.78-2.53-24.43-12.69-3.02-9.5,2.84-20.53,12.36-23.4ZM719.36,415.57c-4.83,1.11-8.74,5.34-9.4,10.26-1.18,6.66,4.14,13.48,10.85,14.1,7.26,1.04,14.35-5.56,13.75-12.89-.08-7.46-7.99-13.45-15.2-11.47Z"/><path class="g" d="M167.34,417.49c2.4-1.14,5.53.84,5.36,3.54.08,2.64-2.94,4.57-5.32,3.47-2.98-1.09-3.05-5.91-.04-7.01Z"/><path class="g" d="M212.28,417.36c2.79-1.02,5.95,1.74,4.99,4.65-.65,2.93-4.9,3.76-6.67,1.38-1.67-1.95-.7-5.19,1.68-6.03Z"/><path class="g" d="M226.52,417.7c2.44-1.52,5.96.43,5.8,3.36.05,2.77-3.3,4.66-5.65,3.28-2.59-1.22-2.64-5.29-.15-6.64Z"/><path class="g" d="M257.19,417.33c2.36-.74,5.09,1.17,4.9,3.72.12,2.93-3.67,4.86-5.99,3.08-2.6-1.6-1.89-6.11,1.09-6.8Z"/><path class="g" d="M181.16,418.16c1.97-1.85,5.81-.94,6.31,1.85.82,2.6-1.82,5.42-4.46,4.69-3-.4-4.01-4.59-1.85-6.54Z"/><path class="g" d="M401.3,418.4c2.31-1.39,5.39.85,4.85,3.48-.05,9.7.22,19.41-.13,29.09-.39,3.28-5.88,3.19-6.3-.02-.45-8.98-.02-18-.2-26.99.12-1.91-.38-4.6,1.78-5.56Z"/><path class="g" d="M482.28,418.37c1.88-1.06,4.82.26,4.78,2.57.31,7.68-.01,15.37.13,23.06-.08,2.58.27,5.24-.42,7.76-1.49,2.93-6.64,1.69-6.18-1.73-.16-8.69.03-17.39-.08-26.08.11-1.93-.38-4.57,1.77-5.58Z"/><path class="g" d="M167.34,432.39c2.44-1.19,5.62.93,5.35,3.66.02,2.73-3.32,4.58-5.65,3.16-2.73-1.29-2.52-5.77.3-6.82Z"/><path class="g" d="M197.21,432.35c2.43-1.08,5.56.92,5.26,3.67.13,3.08-3.99,4.81-6.22,2.82-2.21-1.68-1.62-5.52.96-6.49Z"/><path class="g" d="M212.16,432.32c2.41-1,5.48.97,5.24,3.67.13,3.1-4.02,4.84-6.25,2.83-2.25-1.68-1.59-5.56,1.01-6.5Z"/><path class="g" d="M227.19,432.27c2.77-1.09,5.9,1.75,4.98,4.6-.58,2.88-4.74,3.79-6.54,1.55-1.85-1.89-.9-5.34,1.56-6.15Z"/><path class="g" d="M241.34,432.65c2.42-1.66,6.08.37,5.86,3.32.1,2.96-3.69,4.78-6.01,3.05-2.24-1.39-2.11-5.08.15-6.37Z"/><path class="g" d="M256.32,432.6c2.44-1.59,6.06.51,5.78,3.45.03,2.88-3.62,4.66-5.92,3.02-2.32-1.34-2.24-5.24.14-6.47Z"/><path class="g" d="M197.17,447.29c2.44-1.22,5.7.98,5.28,3.74.09,2.65-3.18,4.4-5.43,3.17-2.91-1.16-2.79-5.87.15-6.91Z"/><path class="g" d="M242.05,447.2c2.46-1.03,5.37,1.12,5.17,3.77,0,2.87-3.7,4.67-5.98,2.98-2.55-1.56-2.04-5.87.81-6.75Z"/><path class="g" d="M257.09,447.14c2.42-.87,5.27,1.23,4.99,3.83.05,2.9-3.64,4.63-5.94,3-2.59-1.6-1.99-6.03.95-6.83Z"/><path class="g" d="M588.29,841.48c6.19-2.15,13,4.15,11.27,10.5-1.13,6.66-10.43,9.36-14.98,4.42-4.86-4.36-2.65-13.37,3.71-14.92Z"/><path class="g" d="M623.32,841.62c6.3-2.58,13.56,3.84,11.72,10.41-1.13,6.48-10.08,9.24-14.72,4.61-4.97-4.15-3.18-13.11,3-15.02Z"/><path class="g" d="M660.39,841.58c6.28-2.48,13.41,3.96,11.59,10.47-1.19,6.49-10.13,9.22-14.77,4.57-4.94-4.21-3.09-13.22,3.18-15.04Z"/><path class="g" d="M552.48,841.48c6.19-2.15,13,4.15,11.27,10.5-1.13,6.66-10.43,9.36-14.98,4.42-4.86-4.36-2.65-13.37,3.71-14.92Z"/><path class="g" d="M724.21,858.87h-4.47v7.69h-7.67v-7.69h-15.84v-5.46l16.28-23.97h7.24v23.33h4.47v6.09ZM712.07,852.77v-6.3c0-1.05.04-2.57.13-4.57.08-2,.15-3.16.2-3.48h-.2c-.63,1.39-1.38,2.74-2.26,4.06l-6.8,10.28h8.94Z"/><path class="g" d="M775.9,858.13c0,2.91-1.01,5.13-3.03,6.65-2.02,1.52-5.05,2.29-9.08,2.29-2.07,0-3.83-.14-5.28-.42-1.46-.28-2.82-.69-4.09-1.23v-6.4c1.44.68,3.06,1.24,4.86,1.7s3.39.69,4.76.69c2.81,0,4.21-.81,4.21-2.44,0-.61-.19-1.1-.56-1.49-.37-.38-1.02-.81-1.93-1.29s-2.13-1.04-3.66-1.69c-2.18-.91-3.79-1.76-4.81-2.54-1.02-.78-1.77-1.67-2.23-2.68-.47-1.01-.7-2.25-.7-3.72,0-2.52.98-4.47,2.93-5.85,1.96-1.38,4.73-2.07,8.32-2.07s6.75.75,9.98,2.23l-2.34,5.59c-1.42-.61-2.75-1.11-3.99-1.5-1.24-.39-2.5-.58-3.78-.58-2.29,0-3.43.62-3.43,1.85,0,.69.37,1.29,1.1,1.8s2.35,1.26,4.84,2.26c2.22.9,3.84,1.74,4.88,2.51,1.03.78,1.79,1.68,2.29,2.69.49,1.02.74,2.23.74,3.63Z"/><path class="g" d="M794.8,867.07c-4.57,0-8.14-1.26-10.71-3.78-2.57-2.52-3.86-6.09-3.86-10.71s1.19-8.43,3.57-11.03c2.38-2.6,5.67-3.9,9.86-3.9s7.13,1.14,9.37,3.43,3.35,5.44,3.35,9.47v3.76h-18.31c.08,2.2.74,3.92,1.96,5.15,1.22,1.24,2.93,1.85,5.13,1.85,1.71,0,3.33-.18,4.85-.53s3.11-.92,4.77-1.7v5.99c-1.35.68-2.8,1.18-4.34,1.51-1.54.33-3.42.5-5.64.5ZM793.7,843.15c-1.64,0-2.93.52-3.86,1.56-.93,1.04-1.46,2.52-1.6,4.43h10.87c-.03-1.91-.53-3.39-1.5-4.43s-2.27-1.56-3.91-1.56Z"/><path class="g" d="M832.42,866.56h-22.42v-4.57l13.15-17.9h-12.37v-5.92h21.18v5.03l-12.8,17.44h13.25v5.92Z"/><path class="g" d="M863.83,852.32c0,4.62-1.22,8.24-3.66,10.84-2.44,2.61-5.83,3.91-10.18,3.91-2.73,0-5.13-.6-7.21-1.79s-3.68-2.91-4.8-5.14-1.68-4.84-1.68-7.82c0-4.64,1.21-8.24,3.63-10.82,2.42-2.57,5.82-3.86,10.21-3.86,2.73,0,5.13.59,7.21,1.78,2.08,1.19,3.68,2.89,4.8,5.1,1.12,2.22,1.68,4.82,1.68,7.79ZM844.21,852.32c0,2.81.46,4.93,1.38,6.37.92,1.44,2.42,2.16,4.51,2.16s3.55-.71,4.46-2.15c.91-1.43,1.36-3.56,1.36-6.39s-.46-4.92-1.37-6.32c-.91-1.4-2.41-2.11-4.49-2.11s-3.55.7-4.47,2.09-1.37,3.51-1.37,6.33Z"/><path class="g" d="M896.43,866.56h-7.74v-16.58c0-2.05-.36-3.58-1.09-4.61-.73-1.02-1.89-1.54-3.48-1.54-2.17,0-3.73.72-4.7,2.17s-1.45,3.85-1.45,7.2v13.36h-7.74v-28.39h5.92l1.04,3.63h.43c.86-1.37,2.05-2.41,3.57-3.11,1.51-.7,3.24-1.05,5.17-1.05,3.3,0,5.81.89,7.52,2.68,1.71,1.79,2.56,4.36,2.56,7.73v18.51Z"/><path id="d" class="g" d="M382.26,655.79c-9.95-12.81-28.4-15.13-41.21-5.18-1.94,1.5-3.68,3.24-5.18,5.18-3.68,5.25-5.61,11.52-5.52,17.93-.09,6.41,1.84,12.68,5.52,17.93,9.95,12.81,28.4,15.13,41.21,5.18,1.94-1.5,3.68-3.24,5.18-5.18,3.68-5.25,5.61-11.52,5.52-17.93.09-6.41-1.84-12.68-5.52-17.93ZM373.07,680.45c-1.73,6.42-7.39,11.01-14.03,11.36-6.93.16-11.92-5.07-14.01-11.36-1.49-4.36-1.49-9.09,0-13.45,1.73-6.41,7.38-11,14.01-11.36,6.9-.16,11.92,5.07,14.03,11.36,1.48,4.35,1.48,9.07,0,13.43v.02ZM161.84,701.51c0,.92-.74,1.66-1.66,1.66h-9.63c-.92,0-1.66-.74-1.66-1.66v-79.23c0-.92.74-1.66,1.66-1.66h9.64c.92,0,1.66.74,1.66,1.66v79.23ZM139.2,701.51c0,.92-.74,1.66-1.66,1.66h-9.63c-.92,0-1.66-.74-1.66-1.66v-79.23c0-.91.73-1.65,1.64-1.66h9.64c.92,0,1.66.74,1.66,1.66v79.23h.02ZM328.18,647.72v6.72c.12.96-.56,1.84-1.52,1.96-.24.03-.49.01-.72-.06-10.89-2.24-17.59,2.6-17.59,12.66v32.5c0,.92-.74,1.66-1.66,1.66h-9.63c-.92,0-1.66-.74-1.66-1.66h0v-33.19c-.12-6.35,2.46-12.45,7.1-16.79,4.71-4.61,11.05-7.17,17.64-7.13,2.26,0,4.51.22,6.72.63,1.14.38,1.32,1.05,1.32,2.78v-.1ZM286.92,673.7c.12-6.41-1.81-12.69-5.51-17.93-9.95-12.81-28.4-15.13-41.21-5.18-1.94,1.5-3.68,3.24-5.18,5.18-7.46,10.79-7.46,25.07,0,35.86,5.48,7.27,14.1,11.5,23.21,11.36,5.88.02,11.63-1.71,16.52-4.98v7.08c0,9.61-8.4,11.36-13.78,11.7-3.7.12-7.41-.08-11.07-.61-1.48-.22-2.51,0-2.51,1.59v8.52c.04.8.71,1.43,1.52,1.39,0,0,0,0,0,0,12.48,1.08,20.89.85,27.21-2.76,4.43-2.62,7.71-6.8,9.21-11.72,1.12-3.8,1.65-7.74,1.59-11.7v-27.81h.01ZM258.22,691.76c-6.93,0-11.92-5.07-14.03-11.36-1.49-4.36-1.49-9.09,0-13.45,2.11-6.3,7.1-11.36,14.03-11.36,15.49,0,16,15.8,16,18.07s-.52,18.1-16,18.1ZM117.42,667.9c0-7.64-1.7-13.45-5.38-17.46s-11.07-6.01-17.93-6.01c-6.88-.03-13.65,1.77-19.61,5.22-.38.22-.61.64-.61,1.08l.51,8.43c.15.82.93,1.36,1.75,1.21.26-.05.51-.17.72-.34,8.4-5.18,18.49-6.14,23.62-3.54,2.88,1.66,4.6,4.77,4.48,8.09v1.24h-14.01c-6.02,0-24.5,2.24-24.5,19.21v.18c-.29,5.23,1.93,10.29,5.98,13.62,4.37,3.07,9.64,4.58,14.97,4.28h28.36c.92,0,1.66-.74,1.66-1.66v-33.62l-.02.07ZM104.98,692.75h-16.74c-2.15-.06-4.22-.79-5.94-2.08-1.79-1.26-2.84-3.33-2.8-5.52,0-3.03,2.04-9.08,12.24-9.08h13.24v16.68ZM197.32,644.43c-17.15,0-24.65,11.5-27.05,21.23-.66,2.63-.99,5.32-.99,8.03-.09,6.41,1.84,12.68,5.52,17.93,5.57,7.16,14.13,11.35,23.2,11.36,9.26.34,15.44-1.23,20.17-3.92.95-.61,1.4-1.76,1.12-2.85v-7.47c0-1.52-.92-2.24-2.24-1.32-5.54,3.55-12.1,5.13-18.65,4.48-7.72-.09-14.15-5.93-14.99-13.61h38.11c.86,0,1.56-.69,1.57-1.55.67-10.42-2.35-32.32-25.77-32.32ZM183.62,667.98c.32-7.15,6.38-12.68,13.52-12.36.06,0,.13,0,.19.01,6.35-.38,11.81,4.46,12.19,10.81.03.51.03,1.03-.01,1.54h-25.9Z"/><path id="e" class="h" d="M431.65,703.47h-4.17v-55.26h-19.21v-3.88h42.59v3.88h-19.21v55.26ZM470.6,704.28c-5.61.32-11.07-1.84-14.95-5.9-3.82-4.64-5.74-10.55-5.37-16.55-.31-6.05,1.53-12.01,5.18-16.85,3.39-4.19,8.57-6.54,13.96-6.33,4.71-.21,9.24,1.8,12.26,5.42,3.2,4.22,4.8,9.44,4.51,14.73v3.24h-31.68c-.29,4.97,1.21,9.88,4.23,13.83,3.04,3.3,7.4,5.05,11.87,4.77,2.22.02,4.43-.15,6.61-.52,2.47-.52,4.89-1.28,7.22-2.26v3.64c-2.2.99-4.51,1.73-6.88,2.2-2.3.41-4.63.6-6.96.59ZM469.43,662.21c-3.85-.16-7.57,1.37-10.19,4.19-2.8,3.41-4.39,7.66-4.49,12.08h27.18c.25-4.24-.92-8.45-3.32-11.95-2.17-2.85-5.6-4.46-9.18-4.31h0ZM515.87,704.28c-5.56.3-10.96-1.88-14.76-5.95-3.8-4.66-5.7-10.58-5.34-16.58-.38-6.17,1.6-12.25,5.54-17.01,3.92-4.15,9.46-6.38,15.17-6.09,3.73-.01,7.43.66,10.92,1.98l-1.09,3.56c-3.18-1.15-6.53-1.79-9.91-1.9-4.64-.31-9.16,1.53-12.26,5-3.04,4.15-4.51,9.25-4.17,14.38-.29,4.99,1.18,9.93,4.17,13.94,2.88,3.41,7.19,5.27,11.65,5.04,3.81.03,7.6-.69,11.12-2.14v3.72c-3.48,1.51-7.25,2.22-11.04,2.06ZM568.33,703.47v-28.52c.3-3.45-.69-6.89-2.79-9.64-2.33-2.19-5.47-3.28-8.66-3.01-4.24-.37-8.44,1.08-11.55,3.98-2.45,2.65-3.67,6.96-3.67,12.92v24.27h-4.02v-62.94h4.02v20.01l-.2,5.62h.28c1.47-2.48,3.64-4.48,6.23-5.74,2.95-1.27,6.14-1.88,9.34-1.78,9.98,0,14.97,5.36,14.97,16.07v28.76h-3.96ZM644.66,661.32c.29,5.07-1.87,9.96-5.82,13.15-4.83,3.33-10.65,4.94-16.5,4.57h-9.14v24.43h-4.13v-59.14h14.48c14.08,0,21.12,5.66,21.12,16.99ZM613.19,675.48h8.13c6.66,0,11.47-1.1,14.44-3.3,3.16-2.62,4.82-6.62,4.45-10.7.3-3.86-1.26-7.62-4.21-10.13-3.86-2.49-8.44-3.65-13.02-3.3h-9.79v27.42ZM692.88,681.43c.37,6.06-1.49,12.04-5.22,16.82-3.63,4.09-8.93,6.31-14.4,6.03-3.6.07-7.14-.9-10.19-2.79-3-1.93-5.36-4.72-6.76-8.01-1.63-3.8-2.43-7.91-2.35-12.05-.37-6.04,1.49-12,5.22-16.77,3.62-4.06,8.88-6.27,14.31-6.01,5.42-.27,10.67,1.98,14.22,6.09,3.67,4.76,5.51,10.68,5.17,16.68h0ZM658.17,681.43c-.3,5.03,1.11,10.01,3.99,14.14,2.71,3.41,6.91,5.3,11.27,5.08,4.36.23,8.55-1.66,11.27-5.08,2.88-4.13,4.28-9.11,3.98-14.14.31-5.03-1.1-10.01-4.02-14.12-2.75-3.38-6.95-5.24-11.3-5.02-4.33-.24-8.5,1.62-11.22,5-2.88,4.13-4.28,9.12-3.97,14.14h0ZM721.16,658.65c2.85-.07,5.67.52,8.25,1.74,2.57,1.39,4.72,3.45,6.23,5.95h.25c-.17-3.4-.25-6.73-.25-9.99v-15.82h3.96v62.94h-2.63l-1-6.72h-.32c-3.11,4.9-8.6,7.77-14.4,7.53-5.26.34-10.39-1.75-13.92-5.66-3.21-3.78-4.81-9.28-4.81-16.5,0-7.6,1.59-13.42,4.77-17.43,3.39-4.12,8.55-6.36,13.87-6.04ZM721.16,662.29c-4.23-.27-8.31,1.64-10.82,5.06-2.69,4.4-3.95,9.53-3.62,14.68,0,12.46,4.84,18.69,14.52,18.69,4.11.35,8.15-1.25,10.91-4.33,2.32-2.89,3.48-7.65,3.48-14.28v-.69c0-6.8-1.14-11.68-3.42-14.66-2.75-3.18-6.87-4.84-11.06-4.46h0ZM771.92,704.28c-5.56.3-10.96-1.88-14.76-5.95-3.8-4.66-5.7-10.58-5.34-16.58-.38-6.17,1.6-12.25,5.54-17.01,3.92-4.15,9.46-6.38,15.17-6.09,3.73-.01,7.43.66,10.92,1.98l-1.09,3.56c-3.18-1.15-6.53-1.79-9.91-1.9-4.64-.31-9.16,1.53-12.26,5-3.04,4.15-4.51,9.25-4.17,14.38-.29,4.99,1.18,9.93,4.17,13.94,2.88,3.41,7.19,5.27,11.65,5.04,3.81.03,7.6-.69,11.12-2.14v3.72c-3.48,1.51-7.26,2.22-11.05,2.06ZM820.42,703.47l-1-6.96h-.32c-1.8,2.48-4.13,4.53-6.82,6.01-2.58,1.23-5.42,1.83-8.28,1.76-3.66.22-7.26-.96-10.07-3.32-2.48-2.39-3.79-5.74-3.6-9.18-.13-4.05,1.92-7.86,5.36-9.99,4.72-2.67,10.09-3.98,15.51-3.77l8.37-.25v-2.91c.24-3.35-.66-6.69-2.55-9.47-2.08-2.29-5.12-3.48-8.21-3.2-4.43.09-8.78,1.26-12.66,3.4l-1.51-3.48c4.46-2.18,9.35-3.34,14.31-3.4,3.97-.31,7.9,1.05,10.82,3.77,2.65,3.31,3.94,7.51,3.58,11.73v29.26h-2.93ZM804.24,700.64c4.09.22,8.1-1.23,11.1-4.02,2.84-3.01,4.31-7.06,4.06-11.18v-4.34l-7.69.32c-4.57-.09-9.09.9-13.21,2.89-2.62,1.62-4.14,4.55-3.94,7.62-.14,2.4.78,4.75,2.53,6.41,2.01,1.63,4.56,2.45,7.14,2.29ZM864.88,692.02c.17,3.6-1.53,7.03-4.49,9.08-3.82,2.34-8.27,3.45-12.74,3.18-4.81.22-9.61-.71-14-2.71v-4.33c4.34,2.19,9.13,3.33,14,3.32,3.43.21,6.86-.54,9.89-2.16,2.09-1.17,3.39-3.38,3.38-5.77.01-2.17-.98-4.23-2.68-5.57-2.68-1.97-5.66-3.47-8.84-4.45-3.22-1.05-6.32-2.43-9.26-4.1-1.61-.98-2.98-2.31-4.02-3.88-.94-1.59-1.41-3.42-1.36-5.27-.08-3.15,1.5-6.11,4.15-7.81,3.48-2.11,7.52-3.11,11.59-2.87,4.64-.02,9.23.89,13.51,2.67l-1.51,3.64c-3.79-1.67-7.87-2.57-12.01-2.67-2.95-.14-5.89.47-8.54,1.78-1.92.89-3.15,2.82-3.16,4.94-.08,2.11.82,4.14,2.45,5.5,2.93,2.02,6.15,3.58,9.56,4.6,3.01.99,5.91,2.29,8.66,3.86,1.63.98,3.02,2.31,4.06,3.9.93,1.55,1.4,3.33,1.36,5.14ZM887.81,700.71c2.23.03,4.45-.19,6.64-.65v3.25c-2.17.68-4.44,1.01-6.72.97-3.18.27-6.32-.87-8.6-3.12-2.08-2.82-3.06-6.3-2.76-9.79v-28.4h-6.52v-2.35l6.51-1.82,2.02-9.95h2.06v10.64h12.9v3.48h-12.9v27.83c-.19,2.62.43,5.23,1.78,7.48,1.34,1.69,3.43,2.59,5.58,2.42Z"/></g></svg>