<svg xmlns="http://www.w3.org/2000/svg" width="329.827" height="42.873" viewBox="0 0 329.827 42.873">
  <g id="Group_3" data-name="Group 3" transform="translate(-556 -436)">
    <g id="Group_1" data-name="Group 1" transform="translate(25 -49)">
      <g id="logo_allegro_XL_LG_" data-name="logo allegro (XL, LG)" transform="translate(531 485)">
        <path id="logo_allegro_XL_LG_2" data-name="logo allegro (XL, LG)" d="M126.611,15.008a11.7,11.7,0,0,0-18.48,0,12.133,12.133,0,0,0-2.2,7.142,12.133,12.133,0,0,0,2.2,7.142,11.7,11.7,0,0,0,18.48,0,12.142,12.142,0,0,0,2.2-7.142,12.142,12.142,0,0,0-2.2-7.142Zm-3.66,9.821a6.128,6.128,0,0,1-5.589,4.526c-2.759.062-4.75-2.018-5.58-4.526a8.276,8.276,0,0,1,0-5.357,6.127,6.127,0,0,1,5.58-4.526c2.75-.062,4.75,2.018,5.589,4.526a8.285,8.285,0,0,1,0,5.348ZM38.806,33.22a.661.661,0,0,1-.661.661H34.307a.661.661,0,0,1-.661-.661V1.661A.661.661,0,0,1,34.307,1h3.839a.661.661,0,0,1,.661.661Zm-9.017,0a.661.661,0,0,1-.661.661H25.29a.661.661,0,0,1-.661-.661V1.661A.661.661,0,0,1,25.281,1H29.12a.661.661,0,0,1,.661.661V33.22Zm75.279-21.427v2.678a.7.7,0,0,1-.893.759c-4.339-.893-7.008,1.036-7.008,5.044V33.22a.661.661,0,0,1-.661.661H92.668a.661.661,0,0,1-.661-.661V20a8.928,8.928,0,0,1,2.83-6.687,9.963,9.963,0,0,1,7.026-2.839,14.9,14.9,0,0,1,2.678.25c.455.152.527.42.527,1.107ZM88.632,22.141A11.972,11.972,0,0,0,86.436,15a11.7,11.7,0,0,0-18.48,0,12.561,12.561,0,0,0,0,14.284A11.365,11.365,0,0,0,77.2,33.81a11.785,11.785,0,0,0,6.58-1.982v2.821c0,3.83-3.348,4.526-5.491,4.66a25.229,25.229,0,0,1-4.41-.241c-.589-.089-1,0-1,.634v3.393a.58.58,0,0,0,.607.554c4.973.429,8.321.339,10.838-1.1a8.2,8.2,0,0,0,3.669-4.669,15.615,15.615,0,0,0,.634-4.66V22.141ZM77.2,29.337c-2.759,0-4.75-2.018-5.589-4.526a8.276,8.276,0,0,1,0-5.357c.839-2.509,2.83-4.526,5.589-4.526,6.169,0,6.374,6.294,6.374,7.2S83.365,29.337,77.2,29.337ZM21.112,19.829c0-3.044-.679-5.357-2.143-6.955s-4.41-2.393-7.142-2.393a15.481,15.481,0,0,0-7.812,2.08.491.491,0,0,0-.241.429l.205,3.357a.6.6,0,0,0,.982.348c3.348-2.062,7.365-2.446,9.41-1.411a3.571,3.571,0,0,1,1.786,3.223V19h-5.58c-2.4,0-9.758.893-9.758,7.651v.071A6.553,6.553,0,0,0,3.2,32.149a9.428,9.428,0,0,0,5.964,1.705H20.46a.661.661,0,0,0,.661-.661V19.8Zm-4.955,9.9H9.488a4.125,4.125,0,0,1-2.366-.83,2.625,2.625,0,0,1-1.116-2.2c0-1.205.812-3.616,4.875-3.616h5.276ZM52.939,10.481c-6.83,0-9.821,4.58-10.776,8.455a13.017,13.017,0,0,0-.393,3.2,12.142,12.142,0,0,0,2.2,7.142,11.722,11.722,0,0,0,9.24,4.526c3.687.134,6.151-.491,8.035-1.562a1.045,1.045,0,0,0,.446-1.134V28.132c0-.607-.366-.893-.893-.527a11.651,11.651,0,0,1-7.428,1.786A6.08,6.08,0,0,1,47.4,23.971H62.581a.625.625,0,0,0,.625-.616c.268-4.151-.937-12.874-10.267-12.874Zm-5.455,9.383a5.16,5.16,0,0,1,5.464-4.919A4.589,4.589,0,0,1,57.8,19.864Z" transform="translate(-0.809 -1)" fill="#ff5a00"/>
      </g>
      <g id="Group_2" data-name="Group 2">
        <path id="Path_1" data-name="Path 1" d="M9.475,0H7.815V-22.011H.161v-1.547H17.128v1.547H9.475ZM24.992.322A7.632,7.632,0,0,1,19.038-2.03,9.455,9.455,0,0,1,16.9-8.621a10.274,10.274,0,0,1,2.063-6.711,6.808,6.808,0,0,1,5.559-2.522,6,6,0,0,1,4.882,2.159A8.916,8.916,0,0,1,31.2-9.829V-8.54H18.579a8.286,8.286,0,0,0,1.684,5.511,5.926,5.926,0,0,0,4.729,1.9,14.669,14.669,0,0,0,2.635-.209,16.01,16.01,0,0,0,2.876-.9V-.79a12.828,12.828,0,0,1-2.739.878A15.2,15.2,0,0,1,24.992.322Zm-.467-16.758a5.248,5.248,0,0,0-4.061,1.668,7.866,7.866,0,0,0-1.789,4.81H29.5a7.637,7.637,0,0,0-1.321-4.761A4.358,4.358,0,0,0,24.524-16.436ZM43.022.322a7.5,7.5,0,0,1-5.881-2.369,9.54,9.54,0,0,1-2.127-6.606,9.7,9.7,0,0,1,2.208-6.776,7.762,7.762,0,0,1,6.042-2.425,12.149,12.149,0,0,1,4.351.79l-.435,1.418a12.77,12.77,0,0,0-3.948-.757,6,6,0,0,0-4.882,1.99,8.724,8.724,0,0,0-1.66,5.728,8.46,8.46,0,0,0,1.66,5.551A5.69,5.69,0,0,0,42.99-1.128a11.39,11.39,0,0,0,4.431-.854V-.5A10.042,10.042,0,0,1,43.022.322ZM63.921,0V-11.36A5.54,5.54,0,0,0,62.81-15.2a4.488,4.488,0,0,0-3.448-1.2,5.969,5.969,0,0,0-4.6,1.587Q53.3-13.229,53.3-9.668V0h-1.6V-25.072h1.6V-17.1l-.081,2.24h.113a5.877,5.877,0,0,1,2.481-2.288,8.681,8.681,0,0,1,3.722-.709q5.962,0,5.962,6.4V0ZM94.327-16.79a6.262,6.262,0,0,1-2.32,5.237,10.431,10.431,0,0,1-6.574,1.821H81.791V0H80.147V-23.558h5.769Q94.327-23.558,94.327-16.79ZM81.791-11.15H85.03q3.98,0,5.752-1.313a4.954,4.954,0,0,0,1.772-4.262,4.811,4.811,0,0,0-1.676-4.036,8.378,8.378,0,0,0-5.188-1.313h-3.9Zm31.743,2.369a9.922,9.922,0,0,1-2.079,6.7A7.176,7.176,0,0,1,105.719.322,7.428,7.428,0,0,1,101.659-.79a7.112,7.112,0,0,1-2.691-3.19,11.605,11.605,0,0,1-.935-4.8,9.857,9.857,0,0,1,2.079-6.679,7.161,7.161,0,0,1,5.7-2.393,7.026,7.026,0,0,1,5.664,2.425A9.959,9.959,0,0,1,113.534-8.782Zm-13.825,0A8.913,8.913,0,0,0,101.3-3.15a5.375,5.375,0,0,0,4.488,2.022,5.375,5.375,0,0,0,4.488-2.022,8.913,8.913,0,0,0,1.587-5.632,8.773,8.773,0,0,0-1.6-5.624,5.447,5.447,0,0,0-4.5-2,5.365,5.365,0,0,0-4.471,1.99A8.9,8.9,0,0,0,99.709-8.782ZM124.8-17.854a7.272,7.272,0,0,1,3.287.693,6.542,6.542,0,0,1,2.481,2.369h.1q-.1-2.03-.1-3.98v-6.3h1.579V0H131.1l-.4-2.675h-.129a6.481,6.481,0,0,1-5.736,3,6.871,6.871,0,0,1-5.543-2.256q-1.917-2.256-1.917-6.574,0-4.544,1.9-6.945A6.63,6.63,0,0,1,124.8-17.854Zm0,1.45a4.955,4.955,0,0,0-4.31,2.014,9.981,9.981,0,0,0-1.442,5.849q0,7.444,5.785,7.444A5.25,5.25,0,0,0,129.18-2.82q1.386-1.724,1.386-5.688v-.274q0-4.061-1.362-5.841A5.2,5.2,0,0,0,124.8-16.4ZM145.02.322a7.5,7.5,0,0,1-5.881-2.369,9.54,9.54,0,0,1-2.127-6.606,9.7,9.7,0,0,1,2.208-6.776,7.762,7.762,0,0,1,6.042-2.425,12.149,12.149,0,0,1,4.351.79l-.435,1.418a12.77,12.77,0,0,0-3.948-.757,6,6,0,0,0-4.882,1.99,8.724,8.724,0,0,0-1.66,5.728,8.46,8.46,0,0,0,1.66,5.551,5.69,5.69,0,0,0,4.641,2.006,11.39,11.39,0,0,0,4.431-.854V-.5A10.042,10.042,0,0,1,145.02.322ZM164.339,0l-.4-2.771h-.129a8.318,8.318,0,0,1-2.715,2.393,7.252,7.252,0,0,1-3.3.7A5.7,5.7,0,0,1,153.785-1a4.726,4.726,0,0,1-1.434-3.658,4.513,4.513,0,0,1,2.135-3.98,11.609,11.609,0,0,1,6.179-1.5l3.335-.1v-1.16a5.956,5.956,0,0,0-1.015-3.771,3.936,3.936,0,0,0-3.271-1.273,10.941,10.941,0,0,0-5.043,1.354l-.6-1.386a13.347,13.347,0,0,1,5.7-1.354,5.686,5.686,0,0,1,4.31,1.5,6.584,6.584,0,0,1,1.426,4.673V0Zm-6.445-1.128a6.011,6.011,0,0,0,4.423-1.6,5.987,5.987,0,0,0,1.619-4.455V-8.911l-3.062.129a11.566,11.566,0,0,0-5.261,1.152,3.319,3.319,0,0,0-1.571,3.037,3.267,3.267,0,0,0,1.007,2.554A4.093,4.093,0,0,0,157.894-1.128ZM182.048-4.56a4.163,4.163,0,0,1-1.789,3.617A8.706,8.706,0,0,1,175.184.322a12.1,12.1,0,0,1-5.575-1.08V-2.481a12.3,12.3,0,0,0,5.575,1.321,7.355,7.355,0,0,0,3.94-.862,2.621,2.621,0,0,0,1.345-2.3A2.8,2.8,0,0,0,179.4-6.542a11.783,11.783,0,0,0-3.521-1.772,20.167,20.167,0,0,1-3.69-1.635,5.1,5.1,0,0,1-1.6-1.547,3.886,3.886,0,0,1-.54-2.1,3.592,3.592,0,0,1,1.652-3.11,8.024,8.024,0,0,1,4.616-1.144,13.822,13.822,0,0,1,5.382,1.063l-.6,1.45a12.621,12.621,0,0,0-4.786-1.063,6.93,6.93,0,0,0-3.4.709,2.176,2.176,0,0,0-1.257,1.966,2.721,2.721,0,0,0,.975,2.191A13.591,13.591,0,0,0,176.44-9.7a18.751,18.751,0,0,1,3.448,1.539,5.013,5.013,0,0,1,1.619,1.555A3.8,3.8,0,0,1,182.048-4.56ZM191.184-1.1a11.965,11.965,0,0,0,2.643-.258V-.064a8.455,8.455,0,0,1-2.675.387,4.355,4.355,0,0,1-3.424-1.241,5.76,5.76,0,0,1-1.1-3.9V-16.129H184.03v-.935l2.594-.725.806-3.964h.822v4.238h5.14v1.386h-5.14V-5.043a5.059,5.059,0,0,0,.709,2.981A2.573,2.573,0,0,0,191.184-1.1Z" transform="translate(667 518)" fill="#222"/>
      </g>
    </g>
  </g>
</svg>
